<svg xmlns="http://www.w3.org/2000/svg" xmlns:xlink="http://www.w3.org/1999/xlink" contentStyleType="text/css" data-diagram-type="CLASS" height="856.25px" preserveAspectRatio="none" style="width:328px;height:856px;" version="1.1" viewBox="0 0 328 856" width="328.125px" zoomAndPan="magnify"><defs><filter height="300%" id="f1r61dyghxt69s" width="300%" x="-1" y="-1"><feGaussianBlur result="blurOut" stdDeviation="2.0833"/><feColorMatrix in="blurOut" result="blurOut2" type="matrix" values="0 0 0 0 0 0 0 0 0 0 0 0 0 0 0 0 0 0 .4 0"/><feOffset dx="4.1667" dy="4.1667" in="blurOut2" result="blurOut3"/><feBlend in="SourceGraphic" in2="blurOut3" mode="normal"/></filter><linearGradient id="g1r61dyghxt69s0" x1="50%" x2="50%" y1="0%" y2="100%"><stop offset="0%" stop-color="#2196F3"/><stop offset="100%" stop-color="#1A78C2"/></linearGradient></defs><g><!--class Utente--><g class="entity" data-entity="Utente" data-source-line="2" data-uid="ent0002" id="entity_Utente"><rect fill="none" filter="url(#f1r61dyghxt69s)" height="232.1126" rx="4.1667" ry="4.1667" style="stroke:#2196F3;stroke-width:1.0417;" width="214.151" x="96.5625" y="17.7083"/><rect fill="url(#g1r61dyghxt69s0)" height="44.5882" rx="4.1667" ry="4.1667" style="stroke:url(#g1r61dyghxt69s0);stroke-width:1.0417;" width="214.151" x="96.5625" y="17.7083"/><rect fill="url(#g1r61dyghxt69s0)" height="4.1667" style="stroke:url(#g1r61dyghxt69s0);stroke-width:1.0417;" width="214.151" x="96.5625" y="58.1299"/><rect fill="none" height="232.1126" rx="4.1667" ry="4.1667" style="stroke:#2196F3;stroke-width:1.0417;" width="214.151" x="96.5625" y="17.7083"/><ellipse cx="169.688" cy="40.0024" fill="#FFFFFF" rx="10.4167" ry="10.4167" style="stroke:#CCCCCC;stroke-width:1.0417;"/><path d="M171.5923,44.4295 Q171.1691,44.6411 170.6971,44.755 Q170.2251,44.869 169.7205,44.869 Q167.865,44.869 166.8885,43.6646 Q165.9282,42.4438 165.9282,40.1489 Q165.9282,37.8377 166.8885,36.6333 Q167.865,35.4126 169.7205,35.4126 Q170.2251,35.4126 170.6971,35.5265 Q171.1854,35.6242 171.5923,35.8521 L171.5923,37.854 Q171.1365,37.4308 170.6971,37.2355 Q170.2576,37.0239 169.8019,37.0239 Q168.8091,37.0239 168.3045,37.8215 Q167.7999,38.6027 167.7999,40.1489 Q167.7999,41.6789 168.3045,42.4601 Q168.8091,43.2414 169.8019,43.2414 Q170.2576,43.2414 170.6971,43.0461 Q171.1365,42.8507 171.5923,42.4276 L171.5923,44.4295 Z " fill="#2196F3"/><text fill="#222222" font-family="'Verdana'" font-size="11.4583" lengthAdjust="spacing" textLength="38.7334" x="199.8963" y="43.9692">Utente</text><line style="stroke:#2196F3;stroke-width:1.0417;" x1="97.6042" x2="309.6718" y1="62.2965" y2="62.2965"/><ellipse cx="108.0208" cy="85.1115" fill="none" rx="3.125" ry="3.125" style="stroke:#1A78C2;stroke-width:1.0417;"/><text fill="#222222" font-family="'Verdana'" font-size="11.4583" lengthAdjust="spacing" textLength="32.8979" x="126.7708" y="87.5158">id: int</text><ellipse cx="108.0208" cy="119.283" fill="none" rx="3.125" ry="3.125" style="stroke:#1A78C2;stroke-width:1.0417;"/><text fill="#222222" font-family="'Verdana'" font-size="11.4583" lengthAdjust="spacing" textLength="97.8826" x="126.7708" y="121.6873">username: string</text><ellipse cx="108.0208" cy="153.4546" fill="none" rx="3.125" ry="3.125" style="stroke:#1A78C2;stroke-width:1.0417;"/><text fill="#222222" font-family="'Verdana'" font-size="11.4583" lengthAdjust="spacing" textLength="71.995" x="126.7708" y="155.8589">email: string</text><ellipse cx="108.0208" cy="187.6261" fill="none" rx="3.125" ry="3.125" style="stroke:#1A78C2;stroke-width:1.0417;"/><text fill="#222222" font-family="'Verdana'" font-size="11.4583" lengthAdjust="spacing" textLength="123.8653" x="126.7708" y="190.0304">passwordHash: string</text><ellipse cx="108.0208" cy="221.7977" fill="none" rx="3.125" ry="3.125" style="stroke:#1A78C2;stroke-width:1.0417;"/><text fill="#222222" font-family="'Verdana'" font-size="11.4583" lengthAdjust="spacing" textLength="167.276" x="126.7708" y="224.202">dataRegistrazione: DateTime</text><line style="stroke:#2196F3;stroke-width:1.0417;" x1="97.6042" x2="309.6718" y1="241.4876" y2="241.4876"/></g><!--class Gatto--><g class="entity" data-entity="Gatto" data-source-line="10" data-uid="ent0003" id="entity_Gatto"><rect fill="none" filter="url(#f1r61dyghxt69s)" height="300.4557" rx="4.1667" ry="4.1667" style="stroke:#2196F3;stroke-width:1.0417;" width="211.4487" x="17.7083" y="312.3125"/><rect fill="url(#g1r61dyghxt69s0)" height="44.5882" rx="4.1667" ry="4.1667" style="stroke:url(#g1r61dyghxt69s0);stroke-width:1.0417;" width="211.4487" x="17.7083" y="312.3125"/><rect fill="url(#g1r61dyghxt69s0)" height="4.1667" style="stroke:url(#g1r61dyghxt69s0);stroke-width:1.0417;" width="211.4487" x="17.7083" y="352.734"/><rect fill="none" height="300.4557" rx="4.1667" ry="4.1667" style="stroke:#2196F3;stroke-width:1.0417;" width="211.4487" x="17.7083" y="312.3125"/><ellipse cx="92.9011" cy="334.6066" fill="#FFFFFF" rx="10.4167" ry="10.4167" style="stroke:#CCCCCC;stroke-width:1.0417;"/><path d="M94.8054,339.0337 Q94.3822,339.2453 93.9102,339.3592 Q93.4382,339.4731 92.9337,339.4731 Q91.0782,339.4731 90.1016,338.2687 Q89.1413,337.048 89.1413,334.7531 Q89.1413,332.4419 90.1016,331.2375 Q91.0782,330.0168 92.9337,330.0168 Q93.4382,330.0168 93.9102,330.1307 Q94.3985,330.2284 94.8054,330.4562 L94.8054,332.4582 Q94.3497,332.035 93.9102,331.8397 Q93.4708,331.6281 93.015,331.6281 Q92.0222,331.6281 91.5176,332.4256 Q91.0131,333.2069 91.0131,334.7531 Q91.0131,336.283 91.5176,337.0643 Q92.0222,337.8455 93.015,337.8455 Q93.4708,337.8455 93.9102,337.6502 Q94.3497,337.4549 94.8054,337.0317 L94.8054,339.0337 Z " fill="#2196F3"/><text fill="#222222" font-family="'Verdana'" font-size="11.4583" lengthAdjust="spacing" textLength="31.8965" x="123.1094" y="338.5734">Gatto</text><line style="stroke:#2196F3;stroke-width:1.0417;" x1="18.75" x2="228.1153" y1="356.9007" y2="356.9007"/><ellipse cx="29.1667" cy="379.7157" fill="none" rx="3.125" ry="3.125" style="stroke:#1A78C2;stroke-width:1.0417;"/><text fill="#222222" font-family="'Verdana'" font-size="11.4583" lengthAdjust="spacing" textLength="32.8979" x="47.9167" y="382.1199">id: int</text><ellipse cx="29.1667" cy="413.8872" fill="none" rx="3.125" ry="3.125" style="stroke:#1A78C2;stroke-width:1.0417;"/><text fill="#222222" font-family="'Verdana'" font-size="11.4583" lengthAdjust="spacing" textLength="69.7683" x="47.9167" y="416.2915">titolo: string</text><ellipse cx="29.1667" cy="448.0588" fill="none" rx="3.125" ry="3.125" style="stroke:#1A78C2;stroke-width:1.0417;"/><text fill="#222222" font-family="'Verdana'" font-size="11.4583" lengthAdjust="spacing" textLength="164.5737" x="47.9167" y="450.463">descrizioneMarkdown: string</text><ellipse cx="29.1667" cy="482.2303" fill="none" rx="3.125" ry="3.125" style="stroke:#1A78C2;stroke-width:1.0417;"/><text fill="#222222" font-family="'Verdana'" font-size="11.4583" lengthAdjust="spacing" textLength="157.6248" x="47.9167" y="484.6346">dataInserimento: DateTime</text><ellipse cx="29.1667" cy="516.4019" fill="none" rx="3.125" ry="3.125" style="stroke:#1A78C2;stroke-width:1.0417;"/><text fill="#222222" font-family="'Verdana'" font-size="11.4583" lengthAdjust="spacing" textLength="85.6745" x="47.9167" y="518.8061">fotoURL: string</text><ellipse cx="29.1667" cy="550.5734" fill="none" rx="3.125" ry="3.125" style="stroke:#1A78C2;stroke-width:1.0417;"/><text fill="#222222" font-family="'Verdana'" font-size="11.4583" lengthAdjust="spacing" textLength="87.6495" x="47.9167" y="552.9777">latitudine: float</text><ellipse cx="29.1667" cy="584.745" fill="none" rx="3.125" ry="3.125" style="stroke:#1A78C2;stroke-width:1.0417;"/><text fill="#222222" font-family="'Verdana'" font-size="11.4583" lengthAdjust="spacing" textLength="97.6812" x="47.9167" y="587.1492">longitudine: float</text><line style="stroke:#2196F3;stroke-width:1.0417;" x1="18.75" x2="228.1153" y1="604.4349" y2="604.4349"/></g><!--class Commento--><g class="entity" data-entity="Commento" data-source-line="20" data-uid="ent0004" id="entity_Commento"><rect fill="none" filter="url(#f1r61dyghxt69s)" height="163.7695" rx="4.1667" ry="4.1667" style="stroke:#2196F3;stroke-width:1.0417;" width="135.968" x="135.6563" y="675.2708"/><rect fill="url(#g1r61dyghxt69s0)" height="44.5882" rx="4.1667" ry="4.1667" style="stroke:url(#g1r61dyghxt69s0);stroke-width:1.0417;" width="135.968" x="135.6563" y="675.2708"/><rect fill="url(#g1r61dyghxt69s0)" height="4.1667" style="stroke:url(#g1r61dyghxt69s0);stroke-width:1.0417;" width="135.968" x="135.6563" y="715.6924"/><rect fill="none" height="163.7695" rx="4.1667" ry="4.1667" style="stroke:#2196F3;stroke-width:1.0417;" width="135.968" x="135.6563" y="675.2708"/><ellipse cx="159.5704" cy="697.5649" fill="#FFFFFF" rx="10.4167" ry="10.4167" style="stroke:#CCCCCC;stroke-width:1.0417;"/><path d="M161.4747,701.992 Q161.0515,702.2036 160.5795,702.3175 Q160.1075,702.4315 159.603,702.4315 Q157.7475,702.4315 156.7709,701.2271 Q155.8106,700.0063 155.8106,697.7114 Q155.8106,695.4002 156.7709,694.1958 Q157.7475,692.9751 159.603,692.9751 Q160.1075,692.9751 160.5795,693.089 Q161.0678,693.1867 161.4747,693.4146 L161.4747,695.4165 Q161.019,694.9933 160.5795,694.798 Q160.1401,694.5864 159.6843,694.5864 Q158.6915,694.5864 158.1869,695.384 Q157.6824,696.1652 157.6824,697.7114 Q157.6824,699.2414 158.1869,700.0226 Q158.6915,700.8039 159.6843,700.8039 Q160.1401,700.8039 160.5795,700.6086 Q161.019,700.4132 161.4747,699.9901 L161.4747,701.992 Z " fill="#2196F3"/><text fill="#222222" font-family="'Verdana'" font-size="11.4583" lengthAdjust="spacing" textLength="63.1495" x="185.6023" y="701.5317">Commento</text><line style="stroke:#2196F3;stroke-width:1.0417;" x1="136.6979" x2="270.5826" y1="719.859" y2="719.859"/><ellipse cx="147.1146" cy="742.674" fill="none" rx="3.125" ry="3.125" style="stroke:#1A78C2;stroke-width:1.0417;"/><text fill="#222222" font-family="'Verdana'" font-size="11.4583" lengthAdjust="spacing" textLength="32.8979" x="165.8646" y="745.0783">id: int</text><ellipse cx="147.1146" cy="776.8455" fill="none" rx="3.125" ry="3.125" style="stroke:#1A78C2;stroke-width:1.0417;"/><text fill="#222222" font-family="'Verdana'" font-size="11.4583" lengthAdjust="spacing" textLength="69.4102" x="165.8646" y="779.2498">testo: string</text><ellipse cx="147.1146" cy="811.0171" fill="none" rx="3.125" ry="3.125" style="stroke:#1A78C2;stroke-width:1.0417;"/><text fill="#222222" font-family="'Verdana'" font-size="11.4583" lengthAdjust="spacing" textLength="89.093" x="165.8646" y="813.4214">data: DateTime</text><line style="stroke:#2196F3;stroke-width:1.0417;" x1="136.6979" x2="270.5826" y1="830.707" y2="830.707"/></g><!--link Utente to Gatto--><g class="link" data-entity-1="Utente" data-entity-2="Gatto" data-source-line="27" data-uid="lnk5" id="link_Utente_Gatto"><path codeLine="27" d="M175.3646,249.9792 C170.4479,270.0104 165.2708,291.0938 160.1667,311.875" fill="none" id="Utente-Gatto" style="stroke:#2196F3;stroke-width:3.125;"/><text fill="#222222" font-family="'Verdana'" font-size="12.5" lengthAdjust="spacing" textLength="7.9529" x="155.0966" y="280.1585">1</text><text fill="#222222" font-family="'Verdana'" font-size="12.5" lengthAdjust="spacing" textLength="22.1497" x="128.7236" y="290.3676">0..*</text></g><!--link Utente to Commento--><g class="link" data-entity-1="Utente" data-entity-2="Commento" data-source-line="28" data-uid="lnk6" id="link_Utente_Commento"><path codeLine="28" d="M236.3125,250.0729 C240.9271,270.6458 244.9271,291.9896 247.3958,312.3125 C263.4896,444.875 267.0938,480.6979 247.3958,612.7708 C244.3333,633.2292 238.9583,654.8021 233,674.8333" fill="none" id="Utente-Commento" style="stroke:#2196F3;stroke-width:3.125;"/><text fill="#222222" font-family="'Verdana'" font-size="12.5" lengthAdjust="spacing" textLength="7.9529" x="219.7585" y="280.258">1</text><text fill="#222222" font-family="'Verdana'" font-size="12.5" lengthAdjust="spacing" textLength="22.1497" x="201.4336" y="653.6601">0..*</text></g><!--link Gatto to Commento--><g class="link" data-entity-1="Gatto" data-entity-2="Commento" data-source-line="29" data-uid="lnk7" id="link_Gatto_Commento"><path codeLine="29" d="M164.4792,613.2813 C170.2917,634.5 176.0938,655.6354 181.3646,674.875" fill="none" id="Gatto-Commento" style="stroke:#2196F3;stroke-width:3.125;"/><text fill="#222222" font-family="'Verdana'" font-size="12.5" lengthAdjust="spacing" textLength="7.9529" x="148.0085" y="642.9328">1</text><text fill="#222222" font-family="'Verdana'" font-size="12.5" lengthAdjust="spacing" textLength="22.1497" x="145.1994" y="653.7055">0..*</text></g><!--SRC=[RP31Ri8m38RlUGhJuwQYxSgLIO34BcWyW4LCiKXibBX2shHtNreOAeLRz3lwlj-Us84YGKIZn5XhQu65t2vWph0r4YFuSG2lx6V0OjsppPG48yqWMs9fkemYSXW6fm8uQ_9Bp8TXxj5mGmsN1BzPfL0-YloB8xbVTnKlq4mVlCQcGUzWb7U9UymdfgFNiunTAobj2rnC1wOotAlfThCU_WzO5AtdhjG-AFRMeDACqblFkSQU_5YLikcuolscxdhTwhs2keRgRJfzgIwRFn_zozpbEi-7Vm00]--></g></svg>