<?xml version="1.0" encoding="UTF-8" standalone="no"?>
<!-- Created with Inkscape (http://www.inkscape.org/) -->

<svg
   version="1.1"
   id="svg1"
   width="384"
   height="384"
   viewBox="0 0 384 384"
   sodipodi:docname="gatti.eps"
   xmlns:inkscape="http://www.inkscape.org/namespaces/inkscape"
   xmlns:sodipodi="http://sodipodi.sourceforge.net/DTD/sodipodi-0.dtd"
   xmlns="http://www.w3.org/2000/svg"
   xmlns:svg="http://www.w3.org/2000/svg">
  <defs
     id="defs1" />
  <sodipodi:namedview
     id="namedview1"
     pagecolor="#ffffff"
     bordercolor="#000000"
     borderopacity="0.25"
     inkscape:showpageshadow="2"
     inkscape:pageopacity="0.0"
     inkscape:pagecheckerboard="0"
     inkscape:deskcolor="#d1d1d1">
    <inkscape:page
       x="0"
       y="0"
       inkscape:label="1"
       id="page1"
       width="384"
       height="384"
       margin="0"
       bleed="0" />
  </sodipodi:namedview>
  <g
     id="g1"
     inkscape:groupmode="layer"
     inkscape:label="1">
    <g
       id="group-R5">
      <path
         id="path2"
         d="M 2880,0 H 0 V 2880 H 2880 V 0"
         style="fill:#ffffff;fill-opacity:1;fill-rule:nonzero;stroke:none"
         transform="matrix(0.13333333,0,0,-0.13333333,0,384)" />
      <path
         id="path3"
         d="m 1237.29,2702.05 c -11.66,-2.5 -30.16,-15.87 -39.55,-35.27 -9.39,-19.41 -8.01,-39.16 2.35,-43.67 10.36,-4.51 29.11,10.05 41.02,7.92 11.91,-2.14 26.94,-14.04 41.49,-9.37 14.55,4.68 5.19,43.48 -5.1,59.34 -10.31,15.88 -21.72,25.02 -40.21,21.05"
         style="fill:#f686a0;fill-opacity:1;fill-rule:nonzero;stroke:none"
         transform="matrix(0.13333333,0,0,-0.13333333,0,384)" />
      <path
         id="path4"
         d="m 1313.09,2715.98 c -5.94,5.3 -16.41,2.38 -23.4,-6.45 -6.98,-8.83 -7.84,-20.23 -1.91,-25.53 5.94,-5.3 16.42,-2.51 23.41,6.32 6.99,8.82 7.84,20.35 1.9,25.66"
         style="fill:#f686a0;fill-opacity:1;fill-rule:nonzero;stroke:none"
         transform="matrix(0.13333333,0,0,-0.13333333,0,384)" />
      <path
         id="path5"
         d="m 1224.57,2710.38 c 9.95,2.55 15.18,16.41 11.16,30.89 -3.86,14.49 -14.95,24.05 -24.76,21.41 -9.81,-2.66 -14.64,-16.43 -10.79,-30.8 4.01,-14.34 14.47,-24.04 24.39,-21.5"
         style="fill:#f686a0;fill-opacity:1;fill-rule:nonzero;stroke:none"
         transform="matrix(0.13333333,0,0,-0.13333333,0,384)" />
      <path
         id="path6"
         d="m 1195.63,2711.39 c -6.54,8.95 -17.33,12.08 -23.23,7.16 -5.88,-4.92 -5.69,-16.12 0.98,-25.03 6.62,-8.9 16.97,-12.19 23.11,-7.28 6.15,4.92 5.76,16.21 -0.86,25.15"
         style="fill:#f686a0;fill-opacity:1;fill-rule:nonzero;stroke:none"
         transform="matrix(0.13333333,0,0,-0.13333333,0,384)" />
      <path
         id="path7"
         d="m 1285.49,2730.71 c 3.37,14.54 -1.93,28.65 -11.84,31.44 -9.9,2.78 -20.66,-6.75 -24.05,-21.19 -3.2,-14.42 1.53,-28.45 11.28,-31.34 9.75,-2.9 20.9,6.52 24.61,21.09"
         style="fill:#f686a0;fill-opacity:1;fill-rule:nonzero;stroke:none"
         transform="matrix(0.13333333,0,0,-0.13333333,0,384)" />
      <path
         id="path8"
         d="m 1738.26,1584.2 c 8.82,-8.02 30.46,-15.29 51.7,-11.62 21.25,3.67 36.51,16.28 34.14,27.33 -2.37,11.05 -25.12,17.82 -30.33,28.74 -5.19,10.93 -4.27,30.08 -16.53,39.19 -12.28,9.11 -38.38,-21.1 -45.28,-38.7 -6.91,-17.62 -7.69,-32.22 6.3,-44.94"
         style="fill:#f686a0;fill-opacity:1;fill-rule:nonzero;stroke:none"
         transform="matrix(0.13333333,0,0,-0.13333333,0,384)" />
      <path
         id="path9"
         d="m 1682.8,1637.72 c -0.85,-7.92 7.62,-14.73 18.87,-15.27 11.25,-0.54 21.01,5.4 21.87,13.31 0.85,7.91 -7.52,14.81 -18.77,15.35 -11.25,0.54 -21.11,-5.48 -21.97,-13.39"
         style="fill:#f686a0;fill-opacity:1;fill-rule:nonzero;stroke:none"
         transform="matrix(0.13333333,0,0,-0.13333333,0,384)" />
      <path
         id="path10"
         d="m 1738.89,1569 c -7.86,6.61 -22.18,2.79 -31.6,-8.91 -9.54,-11.58 -10.87,-26.16 -3,-32.59 7.87,-6.43 21.88,-2.34 31.32,9.15 9.33,11.62 11.12,25.77 3.28,32.35"
         style="fill:#f686a0;fill-opacity:1;fill-rule:nonzero;stroke:none"
         transform="matrix(0.13333333,0,0,-0.13333333,0,384)" />
      <path
         id="path11"
         d="m 1754.92,1544.89 c -3.47,-10.53 0.27,-21.13 7.71,-23.06 7.41,-1.91 16.41,4.76 19.77,15.37 3.39,10.56 0.04,20.9 -7.54,23.03 -7.57,2.14 -16.52,-4.76 -19.94,-15.34"
         style="fill:#f686a0;fill-opacity:1;fill-rule:nonzero;stroke:none"
         transform="matrix(0.13333333,0,0,-0.13333333,0,384)" />
      <path
         id="path12"
         d="m 1686.89,1606.7 c -13.78,-5.72 -22.17,-18.25 -18.67,-27.93 3.51,-9.67 17.52,-12.88 31.23,-7.22 13.59,5.8 22.24,17.8 18.92,27.42 -3.32,9.61 -17.47,13.2 -31.48,7.73"
         style="fill:#f686a0;fill-opacity:1;fill-rule:nonzero;stroke:none"
         transform="matrix(0.13333333,0,0,-0.13333333,0,384)" />
      <path
         id="path13"
         d="m 2649.03,2203.43 c -1.72,-11.81 4.34,-33.81 19.24,-49.38 14.91,-15.57 33.9,-21.19 41.74,-13.05 7.84,8.14 0.75,30.79 6.9,41.21 6.17,10.41 22.56,20.34 23.27,35.61 0.7,15.27 -38.93,20.04 -57.39,15.93 -18.47,-4.11 -31.02,-11.62 -33.76,-30.32"
         style="fill:#f686a0;fill-opacity:1;fill-rule:nonzero;stroke:none"
         transform="matrix(0.13333333,0,0,-0.13333333,0,384)" />
      <path
         id="path14"
         d="m 2662.45,2279.32 c -7.04,-3.71 -7.97,-14.55 -2.13,-24.18 5.83,-9.63 16.21,-14.41 23.25,-10.71 7.05,3.71 8.09,14.52 2.26,24.15 -5.83,9.63 -16.33,14.45 -23.38,10.74"
         style="fill:#f686a0;fill-opacity:1;fill-rule:nonzero;stroke:none"
         transform="matrix(0.13333333,0,0,-0.13333333,0,384)" />
      <path
         id="path15"
         d="m 2636.78,2194.41 c 1.1,10.22 -10.08,19.96 -25.04,21.24 -14.93,1.44 -27.77,-5.6 -28.71,-15.72 -0.94,-10.12 10.28,-19.46 25.09,-20.87 14.84,-1.24 27.58,5.17 28.66,15.35"
         style="fill:#f686a0;fill-opacity:1;fill-rule:nonzero;stroke:none"
         transform="matrix(0.13333333,0,0,-0.13333333,0,384)" />
      <path
         id="path16"
         d="m 2625.73,2167.64 c -10.67,-2.99 -17.37,-12.01 -14.82,-19.26 2.56,-7.22 13.12,-10.96 23.79,-7.81 10.66,3.08 17.36,11.63 14.9,19.11 -2.46,7.47 -13.18,11.05 -23.87,7.96"
         style="fill:#f686a0;fill-opacity:1;fill-rule:nonzero;stroke:none"
         transform="matrix(0.13333333,0,0,-0.13333333,0,384)" />
      <path
         id="path17"
         d="m 2639,2258.6 c -12.44,8.24 -27.52,8.2 -33.59,-0.12 -6.07,-8.3 -0.89,-21.72 11.46,-29.93 12.39,-8.03 27.19,-8.5 33.31,-0.38 6.11,8.12 1.18,21.86 -11.18,30.43"
         style="fill:#f686a0;fill-opacity:1;fill-rule:nonzero;stroke:none"
         transform="matrix(0.13333333,0,0,-0.13333333,0,384)" />
      <path
         id="path18"
         d="m 2176.72,2699.44 c -11.93,-0.31 -32.58,-10.04 -45.38,-27.38 -12.81,-17.34 -15.1,-37.01 -5.75,-43.34 9.36,-6.35 30.47,4.5 41.78,0.21 11.31,-4.3 23.89,-18.77 39.05,-16.86 15.17,1.91 13.13,41.78 5.93,59.26 -7.2,17.51 -16.73,28.6 -35.63,28.11"
         style="fill:#f686a0;fill-opacity:1;fill-rule:nonzero;stroke:none"
         transform="matrix(0.13333333,0,0,-0.13333333,0,384)" />
      <path
         id="path19"
         d="m 2253.78,2699.14 c -4.85,6.31 -15.68,5.37 -24.18,-2.01 -8.5,-7.4 -11.45,-18.44 -6.59,-24.75 4.85,-6.3 15.68,-5.49 24.17,1.9 8.5,7.38 11.46,18.55 6.6,24.86"
         style="fill:#f686a0;fill-opacity:1;fill-rule:nonzero;stroke:none"
         transform="matrix(0.13333333,0,0,-0.13333333,0,384)" />
      <path
         id="path20"
         d="m 2165.75,2709.97 c 10.25,0.66 17.95,13.33 16.66,28.3 -1.12,14.95 -10.25,26.4 -20.38,25.61 -10.13,-0.81 -17.42,-13.45 -16.29,-28.27 1.3,-14.84 9.79,-26.31 20.01,-25.64"
         style="fill:#f686a0;fill-opacity:1;fill-rule:nonzero;stroke:none"
         transform="matrix(0.13333333,0,0,-0.13333333,0,384)" />
      <path
         id="path21"
         d="m 2137.49,2716.3 c -4.77,10.01 -14.8,15.07 -21.51,11.32 -6.68,-3.75 -8.56,-14.8 -3.65,-24.78 4.86,-9.96 14.42,-15.11 21.37,-11.41 6.94,3.69 8.64,14.86 3.79,24.87"
         style="fill:#f686a0;fill-opacity:1;fill-rule:nonzero;stroke:none"
         transform="matrix(0.13333333,0,0,-0.13333333,0,384)" />
      <path
         id="path22"
         d="m 2229.38,2718.71 c 5.99,13.67 3.38,28.52 -5.84,33.09 -9.22,4.56 -21.56,-2.82 -27.55,-16.39 -5.8,-13.59 -3.74,-28.24 5.3,-32.89 9.05,-4.64 21.75,2.56 28.09,16.19"
         style="fill:#f686a0;fill-opacity:1;fill-rule:nonzero;stroke:none"
         transform="matrix(0.13333333,0,0,-0.13333333,0,384)" />
      <path
         id="path23"
         d="m 1119.03,1022.43 c -11.94,0.24 -33.01,-8.51 -46.61,-25.231 -13.6,-16.73 -16.81,-36.269 -7.76,-43.039 9.05,-6.769 30.64,3.078 41.74,-1.719 11.1,-4.82 22.99,-19.863 38.23,-18.671 15.23,1.199 15.05,41.128 8.68,58.929 -6.38,17.821 -15.39,29.341 -34.28,29.731"
         style="fill:#f686a0;fill-opacity:1;fill-rule:nonzero;stroke:none"
         transform="matrix(0.13333333,0,0,-0.13333333,0,384)" />
      <path
         id="path24"
         d="m 1195.99,1018.54 c -4.55,6.53 -15.42,6.1 -24.25,-0.88 -8.83,-6.99 -12.29,-17.89 -7.74,-24.41 4.56,-6.531 15.41,-6.219 24.24,0.77 8.84,6.97 12.31,18 7.75,24.52"
         style="fill:#f686a0;fill-opacity:1;fill-rule:nonzero;stroke:none"
         transform="matrix(0.13333333,0,0,-0.13333333,0,384)" />
      <path
         id="path25"
         d="m 1108.56,1033.46 c 10.27,0.19 18.55,12.48 17.96,27.49 -0.43,15 -9.01,26.86 -19.17,26.53 -10.15,-0.33 -18.03,-12.61 -17.59,-27.48 0.61,-14.88 8.56,-26.72 18.8,-26.54"
         style="fill:#f686a0;fill-opacity:1;fill-rule:nonzero;stroke:none"
         transform="matrix(0.13333333,0,0,-0.13333333,0,384)" />
      <path
         id="path26"
         d="m 1080.62,1041.1 c -4.3,10.22 -14.08,15.74 -20.96,12.31 -6.85,-3.44 -9.24,-14.38 -4.79,-24.58 4.38,-10.19 13.7,-15.77 20.81,-12.41 7.11,3.38 9.32,14.46 4.94,24.68"
         style="fill:#f686a0;fill-opacity:1;fill-rule:nonzero;stroke:none"
         transform="matrix(0.13333333,0,0,-0.13333333,0,384)" />
      <path
         id="path27"
         d="m 1172.52,1039.24 c 6.63,13.37 4.71,28.32 -4.29,33.31 -9,4.99 -21.66,-1.81 -28.28,-15.08 -6.43,-13.3 -5.05,-28.04 3.77,-33.1 8.81,-5.06 21.84,1.54 28.8,14.87"
         style="fill:#f686a0;fill-opacity:1;fill-rule:nonzero;stroke:none"
         transform="matrix(0.13333333,0,0,-0.13333333,0,384)" />
      <path
         id="path28"
         d="m 201.715,180.781 c 9.668,6.989 21.223,26.668 22.008,48.207 0.773,21.551 -8.434,39.082 -19.735,39.032 -11.297,-0.051 -22.601,-20.918 -34.359,-23.77 -11.762,-2.84 -30.316,2 -41.754,-8.129 -11.437,-10.133 12.754,-41.891 28.566,-52.262 15.825,-10.379 29.95,-14.148 45.274,-3.078"
         style="fill:#f686a0;fill-opacity:1;fill-rule:nonzero;stroke:none"
         transform="matrix(0.13333333,0,0,-0.13333333,0,384)" />
      <path
         id="path29"
         d="m 137.938,137.52 c 7.57,-2.469 15.976,4.421 18.824,15.32 2.843,10.89 -0.961,21.672 -8.532,24.14 -7.566,2.461 -16.039,-4.32 -18.878,-15.21 -2.848,-10.899 1.015,-21.79 8.586,-24.25"
         style="fill:#f686a0;fill-opacity:1;fill-rule:nonzero;stroke:none"
         transform="matrix(0.13333333,0,0,-0.13333333,0,384)" />
      <path
         id="path30"
         d="m 216.715,178.281 c -8.082,-6.332 -7.289,-21.14 2.223,-32.769 9.367,-11.711 23.367,-16 31.277,-9.633 7.91,6.383 6.797,20.941 -2.512,32.543 -9.445,11.508 -22.93,16.18 -30.988,9.859"
         style="fill:#f686a0;fill-opacity:1;fill-rule:nonzero;stroke:none"
         transform="matrix(0.13333333,0,0,-0.13333333,0,384)" />
      <path
         id="path31"
         d="m 243.617,189.012 c 9.586,-5.571 20.723,-4.09 24.149,2.797 3.39,6.871 -1.286,17.043 -10.981,22.511 -9.64,5.481 -20.441,4.328 -24.086,-2.64 -3.644,-6.969 1.262,-17.149 10.918,-22.668"
         style="fill:#f686a0;fill-opacity:1;fill-rule:nonzero;stroke:none"
         transform="matrix(0.13333333,0,0,-0.13333333,0,384)" />
      <path
         id="path32"
         d="m 169.137,135.141 c 2.761,-14.661 13.304,-25.45 23.492,-24.012 10.187,1.441 16.203,14.492 13.488,29.07 -2.879,14.5 -12.855,25.43 -22.941,24.16 -10.09,-1.277 -16.512,-14.39 -14.039,-29.218"
         style="fill:#f686a0;fill-opacity:1;fill-rule:nonzero;stroke:none"
         transform="matrix(0.13333333,0,0,-0.13333333,0,384)" />
      <path
         id="path33"
         d="m 197.559,1456.91 c -11.86,-1.33 -31.602,-12.78 -42.879,-31.14 -11.278,-18.38 -11.887,-38.17 -2.024,-43.68 9.86,-5.52 29.973,7.09 41.606,3.78 11.636,-3.32 25.406,-16.66 40.351,-13.46 14.95,3.19 9.508,42.75 0.84,59.55 -8.668,16.82 -19.109,27.06 -37.894,24.95"
         style="fill:#f686a0;fill-opacity:1;fill-rule:nonzero;stroke:none"
         transform="matrix(0.13333333,0,0,-0.13333333,0,384)" />
      <path
         id="path34"
         d="m 274.363,1463.2 c -5.375,5.88 -16.086,4.02 -23.925,-4.08 -7.833,-8.08 -9.829,-19.34 -4.454,-25.21 5.379,-5.86 16.09,-4.13 23.926,3.95 7.84,8.09 9.832,19.47 4.453,25.34"
         style="fill:#f686a0;fill-opacity:1;fill-rule:nonzero;stroke:none"
         transform="matrix(0.13333333,0,0,-0.13333333,0,384)" />
      <path
         id="path35"
         d="m 185.727,1466.47 c 10.156,1.54 16.746,14.82 14.183,29.62 -2.394,14.81 -12.465,25.44 -22.492,23.77 -10.023,-1.66 -16.211,-14.88 -13.82,-29.55 2.562,-14.68 12.004,-25.37 22.129,-23.84"
         style="fill:#f686a0;fill-opacity:1;fill-rule:nonzero;stroke:none"
         transform="matrix(0.13333333,0,0,-0.13333333,0,384)" />
      <path
         id="path36"
         d="m 157.027,1470.36 c -5.605,9.57 -16.031,13.76 -22.398,9.45 -6.332,-4.31 -7.266,-15.47 -1.516,-25 5.692,-9.52 15.66,-13.83 22.27,-9.55 6.597,4.27 7.336,15.55 1.644,25.1"
         style="fill:#f686a0;fill-opacity:1;fill-rule:nonzero;stroke:none"
         transform="matrix(0.13333333,0,0,-0.13333333,0,384)" />
      <path
         id="path37"
         d="m 248.375,1480.62 c 4.805,14.13 0.938,28.7 -8.641,32.46 -9.578,3.76 -21.238,-4.64 -26.046,-18.67 -4.625,-14.04 -1.321,-28.46 8.089,-32.32 9.411,-3.85 21.446,4.4 26.598,18.53"
         style="fill:#f686a0;fill-opacity:1;fill-rule:nonzero;stroke:none"
         transform="matrix(0.13333333,0,0,-0.13333333,0,384)" />
      <path
         id="path38"
         d="m 582.973,1729.44 c 0.914,11.9 -6.645,33.43 -22.578,47.95 -15.938,14.51 -35.266,18.81 -42.528,10.16 -7.269,-8.65 1.356,-30.77 -4.066,-41.58 -5.438,-10.81 -21.121,-21.85 -20.778,-37.12 0.344,-15.28 40.215,-17.34 58.344,-11.97 18.149,5.36 30.156,13.71 31.606,32.56"
         style="fill:#f686a0;fill-opacity:1;fill-rule:nonzero;stroke:none"
         transform="matrix(0.13333333,0,0,-0.13333333,0,384)" />
      <path
         id="path39"
         d="m 574.781,1652.82 c 6.774,4.18 6.953,15.04 0.469,24.26 -6.48,9.21 -17.16,13.27 -23.934,9.09 -6.769,-4.18 -7.07,-15.03 -0.593,-24.24 6.472,-9.22 17.281,-13.3 24.058,-9.11"
         style="fill:#f686a0;fill-opacity:1;fill-rule:nonzero;stroke:none"
         transform="matrix(0.13333333,0,0,-0.13333333,0,384)" />
      <path
         id="path40"
         d="m 594.574,1739.28 c -0.39,-10.27 11.422,-19.23 26.442,-19.48 14.996,-0.42 27.32,7.49 27.562,17.65 0.238,10.16 -11.586,18.71 -26.453,19.1 -14.895,0.23 -27.164,-7.04 -27.551,-17.27"
         style="fill:#f686a0;fill-opacity:1;fill-rule:nonzero;stroke:none"
         transform="matrix(0.13333333,0,0,-0.13333333,0,384)" />
      <path
         id="path41"
         d="m 603.77,1766.74 c 10.445,3.72 16.507,13.18 13.464,20.23 -3.046,7.03 -13.836,10.04 -24.269,6.17 -10.422,-3.81 -16.52,-12.79 -13.555,-20.08 2.969,-7.29 13.906,-10.13 24.36,-6.32"
         style="fill:#f686a0;fill-opacity:1;fill-rule:nonzero;stroke:none"
         transform="matrix(0.13333333,0,0,-0.13333333,0,384)" />
      <path
         id="path42"
         d="m 596.754,1675.09 c 12.976,-7.37 28.016,-6.29 33.504,2.41 5.484,8.7 -0.59,21.73 -13.477,29.08 -12.914,7.17 -27.711,6.62 -33.258,-1.9 -5.543,-8.52 0.317,-21.89 13.231,-29.59"
         style="fill:#f686a0;fill-opacity:1;fill-rule:nonzero;stroke:none"
         transform="matrix(0.13333333,0,0,-0.13333333,0,384)" />
      <path
         id="path43"
         d="m 2665.99,1259.18 c -7.47,9.3 -27.72,19.85 -49.27,19.53 -21.55,-0.31 -38.59,-10.39 -37.97,-21.67 0.62,-11.29 22.03,-21.52 25.47,-33.12 3.43,-11.6 -0.47,-30.38 10.23,-41.29 10.71,-10.91 41.2,14.86 50.75,31.18 9.57,16.33 12.62,30.63 0.79,45.37"
         style="fill:#f686a0;fill-opacity:1;fill-rule:nonzero;stroke:none"
         transform="matrix(0.13333333,0,0,-0.13333333,0,384)" />
      <path
         id="path44"
         d="m 2712.42,1197.67 c 2.08,7.69 -5.22,15.74 -16.25,18.03 -11.03,2.28 -21.6,-2.06 -23.68,-9.74 -2.07,-7.68 5.12,-15.8 16.15,-18.09 11.02,-2.29 21.7,2.12 23.78,9.8"
         style="fill:#f686a0;fill-opacity:1;fill-rule:nonzero;stroke:none"
         transform="matrix(0.13333333,0,0,-0.13333333,0,384)" />
      <path
         id="path45"
         d="m 2667.72,1274.29 c 6.74,-7.76 21.48,-6.21 32.62,3.88 11.22,9.95 14.8,24.14 8.03,31.72 -6.77,7.58 -21.25,5.73 -32.36,-4.15 -11.02,-10.02 -15,-23.72 -8.29,-31.45"
         style="fill:#f686a0;fill-opacity:1;fill-rule:nonzero;stroke:none"
         transform="matrix(0.13333333,0,0,-0.13333333,0,384)" />
      <path
         id="path46"
         d="m 2655.65,1300.61 c 5.07,9.86 3.03,20.91 -4.02,23.97 -7.03,3.05 -16.96,-2.14 -21.92,-12.1 -5,-9.9 -3.3,-20.63 3.85,-23.92 7.15,-3.29 17.07,2.13 22.09,12.05"
         style="fill:#f686a0;fill-opacity:1;fill-rule:nonzero;stroke:none"
         transform="matrix(0.13333333,0,0,-0.13333333,0,384)" />
      <path
         id="path47"
         d="m 2713.22,1228.95 c 14.5,3.5 24.74,14.58 22.79,24.68 -1.95,10.1 -15.3,15.45 -29.72,12 -14.33,-3.61 -24.75,-14.12 -22.96,-24.14 1.78,-10.01 15.2,-15.75 29.89,-12.54"
         style="fill:#f686a0;fill-opacity:1;fill-rule:nonzero;stroke:none"
         transform="matrix(0.13333333,0,0,-0.13333333,0,384)" />
      <path
         id="path48"
         d="m 244.809,615.512 c -7.821,9.008 -28.457,18.769 -49.981,17.629 -21.527,-1.141 -38.168,-11.879 -37.113,-23.129 1.055,-11.25 22.848,-20.653 26.726,-32.114 3.879,-11.457 0.711,-30.367 11.821,-40.867 11.109,-10.48 40.59,16.438 49.508,33.117 8.937,16.684 11.433,31.09 -0.961,45.364"
         style="fill:#f686a0;fill-opacity:1;fill-rule:nonzero;stroke:none"
         transform="matrix(0.13333333,0,0,-0.13333333,0,384)" />
      <path
         id="path49"
         d="m 293.578,555.84 c 1.781,7.762 -5.824,15.519 -16.933,17.379 -11.11,1.863 -21.504,-2.879 -23.286,-10.637 -1.781,-7.762 5.727,-15.594 16.832,-17.453 11.102,-1.867 21.602,2.953 23.387,10.711"
         style="fill:#f686a0;fill-opacity:1;fill-rule:nonzero;stroke:none"
         transform="matrix(0.13333333,0,0,-0.13333333,0,384)" />
      <path
         id="path50"
         d="m 245.969,630.68 c 7.023,-7.489 21.695,-5.379 32.433,5.121 10.832,10.379 13.864,24.711 6.809,32.019 -7.063,7.309 -21.457,4.899 -32.18,-5.398 -10.629,-10.442 -14.078,-24.281 -7.062,-31.742"
         style="fill:#f686a0;fill-opacity:1;fill-rule:nonzero;stroke:none"
         transform="matrix(0.13333333,0,0,-0.13333333,0,384)" />
      <path
         id="path51"
         d="m 232.887,656.512 c 4.691,10.047 2.218,21.008 -4.938,23.808 -7.144,2.762 -16.863,-2.8 -21.445,-12.941 -4.609,-10.098 -2.5,-20.75 4.769,-23.758 7.274,-3.012 16.973,2.777 21.614,12.891"
         style="fill:#f686a0;fill-opacity:1;fill-rule:nonzero;stroke:none"
         transform="matrix(0.13333333,0,0,-0.13333333,0,384)" />
      <path
         id="path52"
         d="m 293.168,587.129 c 14.359,4.062 24.168,15.512 21.82,25.531 -2.336,10.02 -15.871,14.852 -30.152,10.84 -14.184,-4.148 -24.188,-15.059 -22.02,-25 2.168,-9.93 15.797,-15.16 30.352,-11.371"
         style="fill:#f686a0;fill-opacity:1;fill-rule:nonzero;stroke:none"
         transform="matrix(0.13333333,0,0,-0.13333333,0,384)" />
      <path
         id="path53"
         d="m 1646.98,1101.3 c -4.59,-11.01 -4.15,-33.83 6.45,-52.6 10.6,-18.77 27.61,-28.9 37.21,-22.95 9.62,5.95 8.34,29.65 16.87,38.22 8.54,8.57 26.89,14.15 31.35,28.76 4.45,14.63 -32.79,29.05 -51.68,29.61 -18.92,0.58 -32.94,-3.59 -40.2,-21.04"
         style="fill:#90908c;fill-opacity:1;fill-rule:nonzero;stroke:none"
         transform="matrix(0.13333333,0,0,-0.13333333,0,384)" />
      <path
         id="path54"
         d="m 1678.72,1171.52 c -7.74,-1.85 -11.31,-12.12 -8.04,-22.89 3.28,-10.78 12.15,-17.98 19.9,-16.13 7.74,1.86 11.41,12.07 8.14,22.85 -3.27,10.77 -12.26,18.03 -20,16.17"
         style="fill:#90908c;fill-opacity:1;fill-rule:nonzero;stroke:none"
         transform="matrix(0.13333333,0,0,-0.13333333,0,384)" />
      <path
         id="path55"
         d="m 1632.88,1095.59 c 3.58,9.63 -4.84,21.83 -19.03,26.77 -14.11,5.08 -28.28,1.42 -31.69,-8.15 -3.41,-9.57 5.15,-21.39 19.15,-26.42 14.07,-4.87 28,-1.8 31.57,7.8"
         style="fill:#90908c;fill-opacity:1;fill-rule:nonzero;stroke:none"
         transform="matrix(0.13333333,0,0,-0.13333333,0,384)" />
      <path
         id="path56"
         d="m 1615.56,1072.38 c -11.08,-0.27 -19.8,-7.36 -19.12,-15.01 0.69,-7.63 10.01,-13.86 21.12,-13.45 11.09,0.36 19.7,6.99 19.16,14.84 -0.54,7.85 -10.04,13.96 -21.16,13.62"
         style="fill:#90908c;fill-opacity:1;fill-rule:nonzero;stroke:none"
         transform="matrix(0.13333333,0,0,-0.13333333,0,384)" />
      <path
         id="path57"
         d="m 1650.88,1157.24 c -10.03,11.05 -24.64,14.74 -32.58,8.18 -7.93,-6.55 -6.23,-20.82 3.71,-31.83 10.03,-10.85 24.24,-14.96 32.18,-8.6 7.93,6.37 6.55,20.89 -3.31,32.25"
         style="fill:#90908c;fill-opacity:1;fill-rule:nonzero;stroke:none"
         transform="matrix(0.13333333,0,0,-0.13333333,0,384)" />
      <path
         id="path58"
         d="m 1799.58,630.539 c 1.84,-11.789 14.13,-31.019 32.96,-41.5 18.85,-10.48 38.64,-10.23 43.73,-0.141 5.09,10.09 -8.37,29.641 -5.57,41.411 2.81,11.761 15.55,26.101 11.72,40.89 -3.85,14.789 -43.12,7.66 -59.54,-1.719 -16.44,-9.39 -26.21,-20.261 -23.3,-38.941"
         style="fill:#90908c;fill-opacity:1;fill-rule:nonzero;stroke:none"
         transform="matrix(0.13333333,0,0,-0.13333333,0,384)" />
      <path
         id="path59"
         d="m 1789.99,707.012 c -5.63,-5.633 -3.32,-16.25 5.1,-23.731 8.42,-7.48 19.75,-8.992 25.38,-3.359 5.63,5.617 3.44,16.25 -4.98,23.726 -8.41,7.481 -19.86,8.981 -25.5,3.364"
         style="fill:#90908c;fill-opacity:1;fill-rule:nonzero;stroke:none"
         transform="matrix(0.13333333,0,0,-0.13333333,0,384)" />
      <path
         id="path60"
         d="m 1790.54,618.309 c -1.98,10.082 -15.53,16.089 -30.2,12.89 -14.69,-3.027 -24.88,-13.539 -22.79,-23.488 2.1,-9.949 15.57,-15.563 30.13,-12.539 14.55,3.199 24.82,13.09 22.86,23.137"
         style="fill:#90908c;fill-opacity:1;fill-rule:nonzero;stroke:none"
         transform="matrix(0.13333333,0,0,-0.13333333,0,384)" />
      <path
         id="path61"
         d="m 1787.88,589.469 c -9.31,-6.008 -13.05,-16.61 -8.47,-22.789 4.58,-6.141 15.78,-6.59 25.04,-0.442 9.27,6.102 13.15,16.25 8.59,22.66 -4.56,6.422 -15.85,6.672 -25.16,0.571"
         style="fill:#90908c;fill-opacity:1;fill-rule:nonzero;stroke:none"
         transform="matrix(0.13333333,0,0,-0.13333333,0,384)" />
      <path
         id="path62"
         d="m 1773.71,680.289 c -14.33,4.191 -28.72,-0.301 -32.06,-10.027 -3.35,-9.731 5.55,-21.024 19.78,-25.223 14.21,-4.019 28.49,-0.09 31.93,9.473 3.45,9.57 -5.31,21.238 -19.65,25.777"
         style="fill:#90908c;fill-opacity:1;fill-rule:nonzero;stroke:none"
         transform="matrix(0.13333333,0,0,-0.13333333,0,384)" />
      <path
         id="path63"
         d="m 257.688,1009.32 c 11.785,-1.88 33.871,3.87 49.648,18.55 15.777,14.69 21.652,33.6 13.625,41.55 -8.027,7.96 -30.773,1.18 -41.102,7.48 -10.328,6.31 -20.031,22.84 -35.285,23.76 -15.254,0.92 -20.586,-38.65 -16.726,-57.16 3.847,-18.53 11.175,-31.18 29.84,-34.18"
         style="fill:#90908c;fill-opacity:1;fill-rule:nonzero;stroke:none"
         transform="matrix(0.13333333,0,0,-0.13333333,0,384)" />
      <path
         id="path64"
         d="m 181.996,1023.8 c 3.613,-7.1 14.43,-8.17 24.141,-2.47 9.715,5.7 14.644,16.01 11.035,23.11 -3.613,7.09 -14.399,8.28 -24.109,2.59 -9.711,-5.7 -14.68,-16.13 -11.067,-23.23"
         style="fill:#90908c;fill-opacity:1;fill-rule:nonzero;stroke:none"
         transform="matrix(0.13333333,0,0,-0.13333333,0,384)" />
      <path
         id="path65"
         d="m 266.531,996.949 c -10.191,1.231 -20.093,-9.801 -21.586,-24.75 -1.648,-14.91 5.211,-27.84 15.321,-28.918 10.101,-1.082 19.597,10 21.214,24.789 1.454,14.821 -4.781,27.649 -14.949,28.879"
         style="fill:#90908c;fill-opacity:1;fill-rule:nonzero;stroke:none"
         transform="matrix(0.13333333,0,0,-0.13333333,0,384)" />
      <path
         id="path66"
         d="m 293.145,985.531 c 2.847,-10.722 11.773,-17.543 19.058,-15.09 7.254,2.45 11.141,12.957 8.145,23.668 -2.942,10.701 -11.395,17.521 -18.903,15.171 -7.504,-2.36 -11.23,-13.03 -8.3,-23.749"
         style="fill:#90908c;fill-opacity:1;fill-rule:nonzero;stroke:none"
         transform="matrix(0.13333333,0,0,-0.13333333,0,384)" />
      <path
         id="path67"
         d="m 202.383,1000.07 c -8.406,-12.332 -8.578,-27.41 -0.352,-33.59 8.223,-6.191 21.703,-1.199 30.094,11.032 8.203,12.277 8.875,27.068 0.844,33.298 -8.035,6.23 -21.848,1.49 -30.586,-10.74"
         style="fill:#90908c;fill-opacity:1;fill-rule:nonzero;stroke:none"
         transform="matrix(0.13333333,0,0,-0.13333333,0,384)" />
      <path
         id="path68"
         d="m 2195.58,984.859 c -10.88,4.911 -33.7,5.153 -52.78,-4.879 -19.08,-10.039 -29.71,-26.742 -24.05,-36.519 5.66,-9.781 29.39,-9.211 37.71,-18 8.31,-8.801 13.33,-27.301 27.81,-32.18 14.48,-4.89 30.01,31.891 31.14,50.77 1.14,18.89 -2.61,33.019 -19.83,40.808"
         style="fill:#90908c;fill-opacity:1;fill-rule:nonzero;stroke:none"
         transform="matrix(0.13333333,0,0,-0.13333333,0,384)" />
      <path
         id="path69"
         d="m 2264.82,951.031 c -1.63,7.797 -11.78,11.668 -22.65,8.719 -10.87,-2.949 -18.33,-11.609 -16.71,-19.398 1.63,-7.793 11.72,-11.782 22.59,-8.821 10.87,2.938 18.4,11.707 16.77,19.5"
         style="fill:#90908c;fill-opacity:1;fill-rule:nonzero;stroke:none"
         transform="matrix(0.13333333,0,0,-0.13333333,0,384)" />
      <path
         id="path70"
         d="m 2190.29,999.121 c 9.51,-3.871 21.96,4.179 27.32,18.219 5.5,13.95 2.27,28.23 -7.2,31.92 -9.47,3.69 -21.54,-4.51 -26.97,-18.35 -5.3,-13.92 -2.64,-27.94 6.85,-31.789"
         style="fill:#90908c;fill-opacity:1;fill-rule:nonzero;stroke:none"
         transform="matrix(0.13333333,0,0,-0.13333333,0,384)" />
      <path
         id="path71"
         d="m 2167.6,1017.12 c 0.07,11.09 -6.76,20.01 -14.43,19.56 -7.65,-0.47 -14.15,-9.59 -14.07,-20.71 0.03,-11.1 6.4,-19.9 14.26,-19.591 7.86,0.301 14.26,9.621 14.24,20.741"
         style="fill:#90908c;fill-opacity:1;fill-rule:nonzero;stroke:none"
         transform="matrix(0.13333333,0,0,-0.13333333,0,384)" />
      <path
         id="path72"
         d="m 2251.37,979.289 c 11.35,9.68 15.47,24.191 9.15,32.321 -6.31,8.12 -20.63,6.85 -31.93,-2.76 -11.14,-9.702 -15.67,-23.791 -9.55,-31.909 6.12,-8.121 20.69,-7.179 32.33,2.348"
         style="fill:#90908c;fill-opacity:1;fill-rule:nonzero;stroke:none"
         transform="matrix(0.13333333,0,0,-0.13333333,0,384)" />
      <path
         id="path73"
         d="m 713.082,1276.05 c -11.019,-4.58 -26.793,-21.08 -32.512,-41.86 -5.711,-20.79 -0.785,-39.96 10.223,-42.51 11.008,-2.56 26.809,15.15 38.902,15.22 12.102,0.05 29.043,-8.93 42.512,-1.7 13.461,7.24 -2.777,43.71 -15.781,57.43 -13.008,13.75 -25.891,20.67 -43.344,13.42"
         style="fill:#90908c;fill-opacity:1;fill-rule:nonzero;stroke:none"
         transform="matrix(0.13333333,0,0,-0.13333333,0,384)" />
      <path
         id="path74"
         d="m 785.098,1303.48 c -6.801,4.14 -16.567,-0.63 -21.84,-10.58 -5.274,-9.95 -4.059,-21.31 2.742,-25.45 6.797,-4.15 16.602,0.5 21.875,10.45 5.277,9.95 4.023,21.43 -2.777,25.58"
         style="fill:#90908c;fill-opacity:1;fill-rule:nonzero;stroke:none"
         transform="matrix(0.13333333,0,0,-0.13333333,0,384)" />
      <path
         id="path75"
         d="m 699.055,1281.93 c 9.324,4.31 11.957,18.89 5.375,32.4 -6.422,13.55 -19.055,20.96 -28.223,16.57 -9.164,-4.39 -11.426,-18.81 -5.039,-32.24 6.547,-13.38 18.59,-21.02 27.887,-16.73"
         style="fill:#90908c;fill-opacity:1;fill-rule:nonzero;stroke:none"
         transform="matrix(0.13333333,0,0,-0.13333333,0,384)" />
      <path
         id="path76"
         d="m 670.406,1277.68 c -8.047,7.63 -19.23,8.74 -24.14,2.83 -4.883,-5.9 -2.672,-16.88 5.504,-24.43 8.117,-7.56 18.894,-8.92 24.046,-2.98 5.153,5.96 2.719,16.99 -5.41,24.58"
         style="fill:#90908c;fill-opacity:1;fill-rule:nonzero;stroke:none"
         transform="matrix(0.13333333,0,0,-0.13333333,0,384)" />
      <path
         id="path77"
         d="m 755.281,1312.97 c 0.688,14.9 -7.09,27.82 -17.336,28.77 -10.246,0.94 -19.101,-10.38 -19.816,-25.19 -0.531,-14.76 6.66,-27.7 16.769,-28.79 10.114,-1.08 19.375,10.2 20.383,25.21"
         style="fill:#90908c;fill-opacity:1;fill-rule:nonzero;stroke:none"
         transform="matrix(0.13333333,0,0,-0.13333333,0,384)" />
      <path
         id="path78"
         d="m 2177.12,1839.99 c 11.8,1.79 31.08,14 41.63,32.79 10.56,18.8 10.4,38.6 0.33,43.73 -10.07,5.13 -29.68,-8.25 -41.43,-5.4 -11.76,2.86 -26.03,15.66 -40.84,11.88 -14.81,-3.77 -7.84,-43.08 1.48,-59.54 9.31,-16.47 20.14,-26.29 38.83,-23.46"
         style="fill:#90908c;fill-opacity:1;fill-rule:nonzero;stroke:none"
         transform="matrix(0.13333333,0,0,-0.13333333,0,384)" />
      <path
         id="path79"
         d="m 2100.62,1830.72 c 5.6,-5.66 16.23,-3.39 23.75,5 7.51,8.39 9.07,19.71 3.47,25.37 -5.6,5.65 -16.24,3.5 -23.76,-4.89 -7.51,-8.37 -9.06,-19.82 -3.46,-25.48"
         style="fill:#90908c;fill-opacity:1;fill-rule:nonzero;stroke:none"
         transform="matrix(0.13333333,0,0,-0.13333333,0,384)" />
      <path
         id="path80"
         d="m 2189.32,1830.9 c -10.09,-1.93 -16.16,-15.46 -13.03,-30.15 2.98,-14.7 13.45,-24.93 23.41,-22.88 9.95,2.06 15.62,15.5 12.65,30.08 -3.13,14.56 -12.97,24.88 -23.03,22.95"
         style="fill:#90908c;fill-opacity:1;fill-rule:nonzero;stroke:none"
         transform="matrix(0.13333333,0,0,-0.13333333,0,384)" />
      <path
         id="path81"
         d="m 2218.14,1828.12 c 5.98,-9.33 16.56,-13.11 22.75,-8.56 6.17,4.55 6.66,15.74 0.55,25.04 -6.06,9.29 -16.19,13.21 -22.63,8.68 -6.43,-4.53 -6.73,-15.83 -0.67,-25.16"
         style="fill:#90908c;fill-opacity:1;fill-rule:nonzero;stroke:none"
         transform="matrix(0.13333333,0,0,-0.13333333,0,384)" />
      <path
         id="path82"
         d="m 2127.27,1814.32 c -4.26,-14.3 0.18,-28.71 9.89,-32.1 9.72,-3.38 21.04,5.47 25.31,19.68 4.07,14.2 0.21,28.49 -9.34,31.98 -9.56,3.48 -21.26,-5.24 -25.86,-19.56"
         style="fill:#90908c;fill-opacity:1;fill-rule:nonzero;stroke:none"
         transform="matrix(0.13333333,0,0,-0.13333333,0,384)" />
      <path
         id="path83"
         d="m 2649.72,2669.38 c 4.18,-11.17 20.1,-27.53 40.66,-33.99 20.57,-6.45 39.91,-2.21 42.86,8.7 2.95,10.91 -14.19,27.34 -13.82,39.43 0.38,12.09 9.96,28.69 3.22,42.41 -6.75,13.72 -43.78,-1.21 -57.96,-13.71 -14.21,-12.51 -21.58,-25.13 -14.96,-42.84"
         style="fill:#90908c;fill-opacity:1;fill-rule:nonzero;stroke:none"
         transform="matrix(0.13333333,0,0,-0.13333333,0,384)" />
      <path
         id="path84"
         d="m 2624.89,2742.33 c -4.39,-6.64 0.03,-16.57 9.78,-22.2 9.76,-5.63 21.16,-4.82 25.54,1.83 4.38,6.64 0.09,16.61 -9.67,22.24 -9.75,5.63 -21.27,4.78 -25.65,-1.87"
         style="fill:#90908c;fill-opacity:1;fill-rule:nonzero;stroke:none"
         transform="matrix(0.13333333,0,0,-0.13333333,0,384)" />
      <path
         id="path85"
         d="m 2643.33,2655.57 c -3.96,9.48 -18.45,12.63 -32.18,6.54 -13.77,-5.93 -21.62,-18.3 -17.57,-27.61 4.06,-9.32 18.39,-12.1 32.04,-6.2 13.6,6.07 21.67,17.83 17.71,27.27"
         style="fill:#90908c;fill-opacity:1;fill-rule:nonzero;stroke:none"
         transform="matrix(0.13333333,0,0,-0.13333333,0,384)" />
      <path
         id="path86"
         d="m 2646.56,2626.8 c -7.91,-7.77 -9.43,-18.91 -3.7,-24.03 5.72,-5.09 16.78,-3.27 24.62,4.62 7.84,7.85 9.59,18.57 3.83,23.93 -5.76,5.36 -16.87,3.33 -24.75,-4.52"
         style="fill:#90908c;fill-opacity:1;fill-rule:nonzero;stroke:none"
         transform="matrix(0.13333333,0,0,-0.13333333,0,384)" />
      <path
         id="path87"
         d="m 2614.33,2712.88 c -14.87,1.21 -28.06,-6.09 -29.37,-16.29 -1.31,-10.21 9.68,-19.46 24.46,-20.71 14.74,-1.06 27.92,5.66 29.37,15.73 1.44,10.07 -9.5,19.72 -24.46,21.27"
         style="fill:#90908c;fill-opacity:1;fill-rule:nonzero;stroke:none"
         transform="matrix(0.13333333,0,0,-0.13333333,0,384)" />
      <path
         id="path88"
         d="m 748.66,2659.64 c 11.223,4.06 27.735,19.81 34.406,40.31 6.664,20.5 2.622,39.89 -8.253,42.94 -10.883,3.06 -27.485,-13.9 -39.571,-13.41 -12.09,0.5 -28.597,10.25 -42.383,3.65 -13.777,-6.61 0.762,-43.79 13.121,-58.1 12.36,-14.33 24.915,-21.83 42.68,-15.39"
         style="fill:#90908c;fill-opacity:1;fill-rule:nonzero;stroke:none"
         transform="matrix(0.13333333,0,0,-0.13333333,0,384)" />
      <path
         id="path89"
         d="m 675.461,2635.55 c 6.602,-4.45 16.582,-0.14 22.305,9.56 5.726,9.7 5.031,21.11 -1.571,25.56 -6.601,4.45 -16.609,0.25 -22.332,-9.45 -5.734,-9.69 -5.008,-21.22 1.598,-25.67"
         style="fill:#90908c;fill-opacity:1;fill-rule:nonzero;stroke:none"
         transform="matrix(0.13333333,0,0,-0.13333333,0,384)" />
      <path
         id="path90"
         d="m 762.402,2653.11 c -9.511,-3.87 -12.812,-18.32 -6.859,-32.11 5.789,-13.84 18.07,-21.82 27.43,-17.86 9.355,3.97 12.281,18.27 6.519,31.98 -5.929,13.66 -17.601,21.85 -27.09,17.99"
         style="fill:#90908c;fill-opacity:1;fill-rule:nonzero;stroke:none"
         transform="matrix(0.13333333,0,0,-0.13333333,0,384)" />
      <path
         id="path91"
         d="m 791.215,2656.04 c 7.687,-7.99 18.805,-9.62 23.984,-3.94 5.153,5.67 3.449,16.74 -4.375,24.66 -7.758,7.92 -18.461,9.78 -23.883,4.08 -5.418,-5.71 -3.5,-16.84 4.274,-24.8"
         style="fill:#90908c;fill-opacity:1;fill-rule:nonzero;stroke:none"
         transform="matrix(0.13333333,0,0,-0.13333333,0,384)" />
      <path
         id="path92"
         d="m 704.805,2624.7 c -1.367,-14.86 5.8,-28.13 15.996,-29.54 10.191,-1.42 19.558,9.48 20.953,24.25 1.211,14.73 -5.375,27.98 -15.426,29.53 -10.051,1.54 -19.824,-9.3 -21.523,-24.24"
         style="fill:#90908c;fill-opacity:1;fill-rule:nonzero;stroke:none"
         transform="matrix(0.13333333,0,0,-0.13333333,0,384)" />
      <path
         id="path93"
         d="m 1199.74,2269.88 c 11.53,3.05 29.39,17.26 37.86,37.08 8.46,19.83 6.17,39.5 -4.39,43.51 -10.57,4.02 -28.62,-11.4 -40.61,-9.83 -11.99,1.58 -27.57,12.76 -41.89,7.41 -14.31,-5.35 -3.14,-43.67 7.89,-59.03 11.03,-15.38 22.86,-23.97 41.14,-19.14"
         style="fill:#90908c;fill-opacity:1;fill-rule:nonzero;stroke:none"
         transform="matrix(0.13333333,0,0,-0.13333333,0,384)" />
      <path
         id="path94"
         d="m 1124.68,2252.42 c 6.17,-5.03 16.5,-1.62 23.06,7.53 6.57,9.15 6.9,20.58 0.72,25.6 -6.17,5.02 -16.52,1.73 -23.08,-7.42 -6.58,-9.14 -6.88,-20.69 -0.7,-25.71"
         style="fill:#90908c;fill-opacity:1;fill-rule:nonzero;stroke:none"
         transform="matrix(0.13333333,0,0,-0.13333333,0,384)" />
      <path
         id="path95"
         d="m 1212.84,2262.15 c -9.82,-3 -14.4,-17.1 -9.7,-31.37 4.54,-14.3 16.05,-23.33 25.73,-20.23 9.67,3.12 13.86,17.09 9.35,31.27 -4.68,14.14 -15.59,23.34 -25.38,20.33"
         style="fill:#90908c;fill-opacity:1;fill-rule:nonzero;stroke:none"
         transform="matrix(0.13333333,0,0,-0.13333333,0,384)" />
      <path
         id="path96"
         d="m 1241.8,2262.5 c 6.95,-8.64 17.87,-11.25 23.54,-6.06 5.63,5.19 4.92,16.36 -2.16,24.95 -7.02,8.58 -17.52,11.39 -23.42,6.19 -5.91,-5.2 -4.99,-16.46 2.04,-25.08"
         style="fill:#90908c;fill-opacity:1;fill-rule:nonzero;stroke:none"
         transform="matrix(0.13333333,0,0,-0.13333333,0,384)" />
      <path
         id="path97"
         d="m 1152.94,2238.99 c -2.69,-14.68 3.27,-28.53 13.3,-30.85 10.02,-2.32 20.32,7.71 23.03,22.29 2.52,14.56 -2.86,28.34 -12.73,30.78 -9.87,2.44 -20.58,-7.49 -23.6,-22.22"
         style="fill:#90908c;fill-opacity:1;fill-rule:nonzero;stroke:none"
         transform="matrix(0.13333333,0,0,-0.13333333,0,384)" />
      <path
         id="path98"
         d="m 1586.23,209.691 c 0.02,11.93 -9.12,32.848 -26.09,46.129 -16.98,13.289 -36.58,16.129 -43.17,6.961 -6.6,-9.172 3.65,-30.582 -0.95,-41.769 -4.62,-11.192 -19.43,-23.364 -17.95,-38.571 1.49,-15.211 41.4,-14.281 59.07,-7.57 17.7,6.699 29.05,15.918 29.09,34.82"
         style="fill:#90908c;fill-opacity:1;fill-rule:nonzero;stroke:none"
         transform="matrix(0.13333333,0,0,-0.13333333,0,384)" />
      <path
         id="path99"
         d="m 1583.78,132.672 c 6.44,4.68 5.81,15.527 -1.34,24.226 -7.15,8.704 -18.1,11.961 -24.54,7.282 -6.44,-4.68 -5.94,-15.52 1.21,-24.219 7.14,-8.699 18.23,-11.969 24.67,-7.289"
         style="fill:#90908c;fill-opacity:1;fill-rule:nonzero;stroke:none"
         transform="matrix(0.13333333,0,0,-0.13333333,0,384)" />
      <path
         id="path100"
         d="m 1597.07,220.359 c 0.37,-10.257 12.82,-18.308 27.82,-17.437 14.98,0.699 26.68,9.508 26.16,19.648 -0.51,10.149 -12.94,17.801 -27.8,17.078 -14.87,-0.878 -26.56,-9.046 -26.18,-19.289"
         style="fill:#90908c;fill-opacity:1;fill-rule:nonzero;stroke:none"
         transform="matrix(0.13333333,0,0,-0.13333333,0,384)" />
      <path
         id="path101"
         d="m 1604.18,248.441 c 10.14,4.481 15.48,14.368 11.92,21.18 -3.56,6.789 -14.55,8.981 -24.66,4.34 -10.11,-4.582 -15.52,-14 -12.02,-21.039 3.5,-7.051 14.62,-9.063 24.76,-4.481"
         style="fill:#90908c;fill-opacity:1;fill-rule:nonzero;stroke:none"
         transform="matrix(0.13333333,0,0,-0.13333333,0,384)" />
      <path
         id="path102"
         d="m 1604.03,156.52 c 13.49,-6.372 28.41,-4.18 33.23,4.91 4.82,9.09 -2.21,21.629 -15.6,27.992 -13.42,6.18 -28.13,4.527 -33.03,-4.383 -4.89,-8.91 1.95,-21.801 15.4,-28.519"
         style="fill:#90908c;fill-opacity:1;fill-rule:nonzero;stroke:none"
         transform="matrix(0.13333333,0,0,-0.13333333,0,384)" />
      <path
         id="path103"
         d="m 728.09,723.531 c -7.442,-9.332 -13.293,-31.39 -8.27,-52.351 5.028,-20.961 18.602,-35.379 29.473,-32.301 10.879,3.07 16.168,26.211 26.727,32.109 10.574,5.891 29.742,6.203 38.046,19.032 8.301,12.839 -23.523,36.941 -41.539,42.679 -18.031,5.77 -32.648,5.602 -44.437,-9.168"
         style="fill:#d4ab22;fill-opacity:1;fill-rule:nonzero;stroke:none"
         transform="matrix(0.13333333,0,0,-0.13333333,0,384)" />
      <path
         id="path104"
         d="m 777.926,782.309 c -7.961,0.351 -14.211,-8.539 -14.031,-19.797 0.187,-11.262 6.742,-20.633 14.695,-20.973 7.949,-0.34 14.293,8.461 14.109,19.723 -0.179,11.25 -6.82,20.707 -14.773,21.047"
         style="fill:#d4ab22;fill-opacity:1;fill-rule:nonzero;stroke:none"
         transform="matrix(0.13333333,0,0,-0.13333333,0,384)" />
      <path
         id="path105"
         d="m 712.965,721.922 c 6.09,8.258 1.351,22.308 -10.93,30.957 -12.168,8.769 -26.805,9.152 -32.715,0.891 -5.906,-8.27 -0.929,-21.989 11.149,-30.668 12.187,-8.563 26.426,-9.43 32.496,-1.18"
         style="fill:#d4ab22;fill-opacity:1;fill-rule:nonzero;stroke:none"
         transform="matrix(0.13333333,0,0,-0.13333333,0,384)" />
      <path
         id="path106"
         d="m 689.926,704.359 c -10.727,2.801 -21.059,-1.621 -22.508,-9.168 -1.434,-7.531 5.809,-16.082 16.609,-18.742 10.762,-2.699 20.86,1.313 22.5,9 1.641,7.699 -5.812,16.18 -16.601,18.91"
         style="fill:#d4ab22;fill-opacity:1;fill-rule:nonzero;stroke:none"
         transform="matrix(0.13333333,0,0,-0.13333333,0,384)" />
      <path
         id="path107"
         d="m 747.227,776.23 c -6.59,13.391 -19.637,20.95 -29.067,16.84 -9.43,-4.129 -11.722,-18.32 -5.195,-31.629 6.66,-13.191 19.199,-21.05 28.578,-17.121 9.375,3.942 12.047,18.289 5.684,31.91"
         style="fill:#d4ab22;fill-opacity:1;fill-rule:nonzero;stroke:none"
         transform="matrix(0.13333333,0,0,-0.13333333,0,384)" />
      <path
         id="path108"
         d="m 1079.67,211.699 c 11.93,-0.129 32.93,8.813 46.37,25.66 13.45,16.852 16.48,36.422 7.37,43.102 -9.11,6.687 -30.62,-3.359 -41.76,1.348 -11.14,4.722 -23.17,19.64 -38.39,18.312 -15.23,-1.34 -14.68,-41.262 -8.14,-59 6.54,-17.762 15.65,-29.199 34.55,-29.422"
         style="fill:#d4ab22;fill-opacity:1;fill-rule:nonzero;stroke:none"
         transform="matrix(0.13333333,0,0,-0.13333333,0,384)" />
      <path
         id="path109"
         d="m 1002.67,214.879 c 4.62,-6.481 15.47,-5.957 24.24,1.109 8.77,7.071 12.13,18 7.51,24.481 -4.61,6.48 -15.46,6.082 -24.22,-0.989 -8.77,-7.058 -12.149,-18.109 -7.53,-24.601"
         style="fill:#d4ab22;fill-opacity:1;fill-rule:nonzero;stroke:none"
         transform="matrix(0.13333333,0,0,-0.13333333,0,384)" />
      <path
         id="path110"
         d="m 1090.24,200.77 c -10.27,-0.278 -18.44,-12.649 -17.71,-27.661 0.56,-14.988 9.25,-26.769 19.4,-26.347 10.16,0.418 17.92,12.777 17.34,27.636 -0.74,14.883 -8.8,26.653 -19.03,26.372"
         style="fill:#d4ab22;fill-opacity:1;fill-rule:nonzero;stroke:none"
         transform="matrix(0.13333333,0,0,-0.13333333,0,384)" />
      <path
         id="path111"
         d="m 1118.24,193.379 c 4.39,-10.18 14.23,-15.609 21.07,-12.117 6.82,3.5 9.11,14.468 4.57,24.629 -4.48,10.14 -13.84,15.648 -20.92,12.211 -7.08,-3.442 -9.2,-14.543 -4.72,-24.723"
         style="fill:#d4ab22;fill-opacity:1;fill-rule:nonzero;stroke:none"
         transform="matrix(0.13333333,0,0,-0.13333333,0,384)" />
      <path
         id="path112"
         d="m 1026.33,194.41 c -6.51,-13.43 -4.45,-28.371 4.59,-33.281 9.05,-4.91 21.65,2.012 28.14,15.34 6.31,13.363 4.8,28.082 -4.06,33.07 -8.87,4.981 -21.83,-1.738 -28.67,-15.129"
         style="fill:#d4ab22;fill-opacity:1;fill-rule:nonzero;stroke:none"
         transform="matrix(0.13333333,0,0,-0.13333333,0,384)" />
      <path
         id="path113"
         d="m 2074.02,177.129 c 3.84,-11.309 19.26,-28.141 39.61,-35.219 20.36,-7.078 39.83,-3.441 43.1,7.379 3.28,10.813 -13.34,27.75 -12.6,39.82 0.75,12.09 10.83,28.391 4.51,42.301 -6.32,13.918 -43.79,0.141 -58.35,-11.922 -14.58,-12.066 -22.34,-24.468 -16.27,-42.359"
         style="fill:#d4ab22;fill-opacity:1;fill-rule:nonzero;stroke:none"
         transform="matrix(0.13333333,0,0,-0.13333333,0,384)" />
      <path
         id="path114"
         d="m 2051.44,250.801 c -4.58,-6.5 -0.48,-16.571 9.1,-22.492 9.58,-5.918 21,-5.457 25.58,1.043 4.58,6.507 0.6,16.609 -8.98,22.527 -9.57,5.93 -21.11,5.43 -25.7,-1.078"
         style="fill:#d4ab22;fill-opacity:1;fill-rule:nonzero;stroke:none"
         transform="matrix(0.13333333,0,0,-0.13333333,0,384)" />
      <path
         id="path115"
         d="m 2067.22,163.52 c -3.68,9.589 -18.05,13.191 -31.97,7.519 -13.95,-5.508 -22.17,-17.629 -18.4,-27.07 3.77,-9.43 18,-12.637 31.83,-7.16 13.78,5.64 22.21,17.152 18.54,26.711"
         style="fill:#d4ab22;fill-opacity:1;fill-rule:nonzero;stroke:none"
         transform="matrix(0.13333333,0,0,-0.13333333,0,384)" />
      <path
         id="path116"
         d="m 2069.56,134.66 c -8.14,-7.531 -10,-18.609 -4.43,-23.898 5.57,-5.27 16.67,-3.793 24.74,3.859 8.09,7.609 10.16,18.258 4.57,23.801 -5.59,5.527 -16.76,3.84 -24.88,-3.762"
         style="fill:#d4ab22;fill-opacity:1;fill-rule:nonzero;stroke:none"
         transform="matrix(0.13333333,0,0,-0.13333333,0,384)" />
      <path
         id="path117"
         d="m 2039.99,221.68 c -14.83,1.679 -28.24,-5.219 -29.86,-15.379 -1.62,-10.16 9.08,-19.75 23.82,-21.449 14.7,-1.512 28.08,4.808 29.83,14.828 1.75,10.011 -8.89,20 -23.79,22"
         style="fill:#d4ab22;fill-opacity:1;fill-rule:nonzero;stroke:none"
         transform="matrix(0.13333333,0,0,-0.13333333,0,384)" />
      <path
         id="path118"
         d="m 2188.23,2268.71 c 10.48,-5.71 33.22,-7.67 52.99,0.91 19.78,8.58 31.63,24.43 26.72,34.61 -4.91,10.18 -28.61,11.4 -36.25,20.78 -7.62,9.39 -11.25,28.22 -25.32,34.18 -14.07,5.95 -32.31,-29.56 -34.86,-48.29 -2.55,-18.76 0.13,-33.13 16.72,-42.19"
         style="fill:#d4ab22;fill-opacity:1;fill-rule:nonzero;stroke:none"
         transform="matrix(0.13333333,0,0,-0.13333333,0,384)" />
      <path
         id="path119"
         d="m 2121.72,2307.64 c 1.03,-7.9 10.87,-12.52 21.93,-10.39 11.06,2.13 19.15,10.2 18.12,18.09 -1.04,7.89 -10.81,12.62 -21.87,10.49 -11.05,-2.12 -19.22,-10.3 -18.18,-18.19"
         style="fill:#d4ab22;fill-opacity:1;fill-rule:nonzero;stroke:none"
         transform="matrix(0.13333333,0,0,-0.13333333,0,384)" />
      <path
         id="path120"
         d="m 2192.44,2254.09 c -9.2,4.58 -22.22,-2.52 -28.62,-16.11 -6.53,-13.5 -4.38,-27.99 4.78,-32.38 9.17,-4.39 21.82,2.88 28.28,16.28 6.32,13.49 4.73,27.67 -4.44,32.21"
         style="fill:#d4ab22;fill-opacity:1;fill-rule:nonzero;stroke:none"
         transform="matrix(0.13333333,0,0,-0.13333333,0,384)" />
      <path
         id="path121"
         d="m 2213.71,2234.44 c -0.9,-11.05 5.24,-20.46 12.92,-20.58 7.66,-0.11 14.83,8.49 15.59,19.6 0.8,11.06 -4.9,20.31 -12.76,20.59 -7.86,0.29 -14.93,-8.52 -15.75,-19.61"
         style="fill:#d4ab22;fill-opacity:1;fill-rule:nonzero;stroke:none"
         transform="matrix(0.13333333,0,0,-0.13333333,0,384)" />
      <path
         id="path122"
         d="m 2133.01,2278.46 c -12.04,-8.82 -17.24,-22.97 -11.55,-31.55 5.68,-8.57 20.06,-8.37 32.05,0.36 11.84,8.83 17.41,22.54 11.91,31.11 -5.49,8.55 -20.08,8.69 -32.41,0.08"
         style="fill:#d4ab22;fill-opacity:1;fill-rule:nonzero;stroke:none"
         transform="matrix(0.13333333,0,0,-0.13333333,0,384)" />
      <path
         id="path123"
         d="m 2183.57,1398.54 c -5.27,10.71 -22.73,25.4 -43.83,29.79 -21.11,4.38 -39.94,-1.76 -41.79,-12.91 -1.85,-11.14 16.84,-25.79 17.67,-37.86 0.82,-12.07 -7.06,-29.54 1.01,-42.52 8.07,-12.98 43.44,5.54 56.31,19.39 12.89,13.86 18.98,27.16 10.63,44.11"
         style="fill:#d4ab22;fill-opacity:1;fill-rule:nonzero;stroke:none"
         transform="matrix(0.13333333,0,0,-0.13333333,0,384)" />
      <path
         id="path124"
         d="m 2215.52,1328.42 c 3.7,7.05 -1.67,16.49 -11.94,21.12 -10.26,4.63 -21.53,2.7 -25.23,-4.36 -3.7,-7.04 1.56,-16.53 11.83,-21.16 10.26,-4.64 21.64,-2.65 25.34,4.4"
         style="fill:#d4ab22;fill-opacity:1;fill-rule:nonzero;stroke:none"
         transform="matrix(0.13333333,0,0,-0.13333333,0,384)" />
      <path
         id="path125"
         d="m 2188.55,1412.91 c 4.89,-9.03 19.62,-10.73 32.68,-3.3 13.12,7.27 19.7,20.35 14.74,29.22 -4.96,8.87 -19.5,10.21 -32.49,2.98 -12.94,-7.38 -19.8,-19.89 -14.93,-28.9"
         style="fill:#d4ab22;fill-opacity:1;fill-rule:nonzero;stroke:none"
         transform="matrix(0.13333333,0,0,-0.13333333,0,384)" />
      <path
         id="path126"
         d="m 2182.49,1441.23 c 7.1,8.52 7.51,19.75 1.29,24.28 -6.2,4.5 -17.02,1.59 -24.03,-7.05 -7.03,-8.58 -7.7,-19.42 -1.44,-24.18 6.27,-4.77 17.12,-1.64 24.18,6.95"
         style="fill:#d4ab22;fill-opacity:1;fill-rule:nonzero;stroke:none"
         transform="matrix(0.13333333,0,0,-0.13333333,0,384)" />
      <path
         id="path127"
         d="m 2223.1,1358.77 c 14.92,0.27 27.32,8.85 27.61,19.13 0.3,10.29 -11.57,18.41 -26.4,18.18 -14.76,-0.41 -27.22,-8.41 -27.66,-18.57 -0.43,-10.15 11.41,-18.68 26.45,-18.74"
         style="fill:#d4ab22;fill-opacity:1;fill-rule:nonzero;stroke:none"
         transform="matrix(0.13333333,0,0,-0.13333333,0,384)" />
      <path
         id="path128"
         d="m 206.137,1900.3 c 7.613,9.2 13.863,31.15 9.222,52.19 -4.644,21.06 -17.953,35.72 -28.879,32.84 -10.933,-2.88 -16.64,-25.92 -27.308,-31.62 -10.676,-5.69 -29.852,-5.66 -38.387,-18.33 -8.527,-12.68 22.852,-37.36 40.758,-43.44 17.922,-6.09 32.543,-6.19 44.594,8.36"
         style="fill:#d4ab22;fill-opacity:1;fill-rule:nonzero;stroke:none"
         transform="matrix(0.13333333,0,0,-0.13333333,0,384)" />
      <path
         id="path129"
         d="m 155.242,1842.44 c 7.946,-0.49 14.363,8.29 14.383,19.55 0.02,11.26 -6.359,20.74 -14.309,21.23 -7.937,0.49 -14.441,-8.2 -14.464,-19.46 -0.028,-11.26 6.445,-20.83 14.39,-21.32"
         style="fill:#d4ab22;fill-opacity:1;fill-rule:nonzero;stroke:none"
         transform="matrix(0.13333333,0,0,-0.13333333,0,384)" />
      <path
         id="path130"
         d="m 221.289,1901.64 c -6.238,-8.15 -1.758,-22.28 10.367,-31.16 12.004,-8.98 26.629,-9.64 32.692,-1.48 6.058,8.16 1.332,21.96 -10.586,30.87 -12.032,8.77 -26.25,9.92 -32.473,1.77"
         style="fill:#d4ab22;fill-opacity:1;fill-rule:nonzero;stroke:none"
         transform="matrix(0.13333333,0,0,-0.13333333,0,384)" />
      <path
         id="path131"
         d="m 244.645,1918.77 c 10.671,-2.98 21.082,1.24 22.668,8.77 1.57,7.5 -5.512,16.17 -16.262,19.03 -10.707,2.9 -20.879,-0.92 -22.66,-8.58 -1.782,-7.67 5.519,-16.29 16.254,-19.22"
         style="fill:#d4ab22;fill-opacity:1;fill-rule:nonzero;stroke:none"
         transform="matrix(0.13333333,0,0,-0.13333333,0,384)" />
      <path
         id="path132"
         d="m 186.047,1847.96 c 6.348,-13.5 19.25,-21.31 28.754,-17.36 9.508,3.95 12.054,18.1 5.769,31.53 -6.414,13.31 -18.812,21.39 -28.261,17.63 -9.45,-3.76 -12.375,-18.06 -6.262,-31.8"
         style="fill:#d4ab22;fill-opacity:1;fill-rule:nonzero;stroke:none"
         transform="matrix(0.13333333,0,0,-0.13333333,0,384)" />
      <path
         id="path133"
         d="m 1700.35,2662.46 c -8.85,-8 -18.2,-28.82 -16.63,-50.32 1.57,-21.5 12.63,-37.93 23.85,-36.65 11.23,1.28 20.2,23.25 31.58,27.36 11.38,4.1 30.35,1.3 40.62,12.62 10.27,11.32 -17.24,40.26 -34.08,48.85 -16.86,8.6 -31.31,10.81 -45.34,-1.86"
         style="fill:#d4ab22;fill-opacity:1;fill-rule:nonzero;stroke:none"
         transform="matrix(0.13333333,0,0,-0.13333333,0,384)" />
      <path
         id="path134"
         d="m 1759.05,2712.39 c -7.8,1.64 -15.41,-6.12 -17.05,-17.26 -1.64,-11.15 3.31,-21.45 11.1,-23.08 7.79,-1.62 15.48,6.04 17.12,17.18 1.65,11.13 -3.38,21.54 -11.17,23.16"
         style="fill:#d4ab22;fill-opacity:1;fill-rule:nonzero;stroke:none"
         transform="matrix(0.13333333,0,0,-0.13333333,0,384)" />
      <path
         id="path135"
         d="m 1685.17,2663.31 c 7.34,7.18 4.95,21.81 -5.78,32.33 -10.58,10.62 -24.97,13.37 -32.13,6.18 -7.17,-7.21 -4.48,-21.55 6.03,-32.07 10.65,-10.42 24.55,-13.59 31.88,-6.44"
         style="fill:#d4ab22;fill-opacity:1;fill-rule:nonzero;stroke:none"
         transform="matrix(0.13333333,0,0,-0.13333333,0,384)" />
      <path
         id="path136"
         d="m 1659.59,2649.72 c -10.13,4.5 -21.05,1.81 -23.7,-5.4 -2.62,-7.2 3.13,-16.81 13.36,-21.19 10.18,-4.41 20.79,-2.09 23.66,5.25 2.87,7.32 -3.12,16.91 -13.32,21.34"
         style="fill:#d4ab22;fill-opacity:1;fill-rule:nonzero;stroke:none"
         transform="matrix(0.13333333,0,0,-0.13333333,0,384)" />
      <path
         id="path137"
         d="m 1727.77,2711.37 c -4.34,14.28 -15.99,23.85 -25.96,21.31 -9.97,-2.54 -14.53,-16.17 -10.25,-30.37 4.44,-14.09 15.54,-23.87 25.44,-21.51 9.88,2.36 14.84,16.09 10.77,30.57"
         style="fill:#d4ab22;fill-opacity:1;fill-rule:nonzero;stroke:none"
         transform="matrix(0.13333333,0,0,-0.13333333,0,384)" />
      <path
         id="path138"
         d="m 640.266,235.398 c -0.942,11.903 -11.743,32.012 -29.731,43.883 -17.996,11.867 -37.758,13.117 -43.594,3.449 -5.836,-9.679 6.11,-30.191 2.422,-41.71 -3.695,-11.52 -17.472,-24.848 -14.773,-39.891 2.711,-15.039 42.418,-10.899 59.496,-2.789 17.102,8.109 27.668,18.219 26.18,37.058"
         style="fill:#d4ab22;fill-opacity:1;fill-rule:nonzero;stroke:none"
         transform="matrix(0.13333333,0,0,-0.13333333,0,384)" />
      <path
         id="path139"
         d="m 644.043,158.441 c 6.047,5.18 4.535,15.938 -3.289,24.039 -7.832,8.09 -19.016,10.45 -25.063,5.27 -6.039,-5.18 -4.652,-15.941 3.176,-24.039 7.821,-8.102 19.129,-10.461 25.176,-5.27"
         style="fill:#d4ab22;fill-opacity:1;fill-rule:nonzero;stroke:none"
         transform="matrix(0.13333333,0,0,-0.13333333,0,384)" />
      <path
         id="path140"
         d="m 650.203,246.922 c 1.207,-10.203 14.262,-17.223 29.145,-15.152 14.871,1.921 25.824,11.628 24.492,21.71 -1.336,10.071 -14.344,16.692 -29.094,14.782 C 660,266.18 649.004,257.09 650.203,246.922"
         style="fill:#d4ab22;fill-opacity:1;fill-rule:nonzero;stroke:none"
         transform="matrix(0.13333333,0,0,-0.13333333,0,384)" />
      <path
         id="path141"
         d="m 655.035,275.469 c 9.738,5.301 14.266,15.582 10.168,22.082 -4.098,6.469 -15.226,7.769 -24.933,2.328 -9.704,-5.367 -14.336,-15.199 -10.282,-21.938 4.067,-6.742 15.309,-7.839 25.047,-2.472"
         style="fill:#d4ab22;fill-opacity:1;fill-rule:nonzero;stroke:none"
         transform="matrix(0.13333333,0,0,-0.13333333,0,384)" />
      <path
         id="path142"
         d="m 662.301,183.852 c 13.965,-5.27 28.656,-1.883 32.726,7.57 4.071,9.449 -3.953,21.379 -17.816,26.637 -13.875,5.082 -28.402,2.25 -32.563,-7.028 -4.16,-9.281 3.696,-21.582 17.653,-27.179"
         style="fill:#d4ab22;fill-opacity:1;fill-rule:nonzero;stroke:none"
         transform="matrix(0.13333333,0,0,-0.13333333,0,384)" />
      <path
         id="path143"
         d="m 958.074,1789.07 c -0.183,-11.93 8.68,-32.96 25.477,-46.47 16.799,-13.51 36.349,-16.62 43.069,-7.53 6.72,9.08 -3.24,30.62 1.51,41.75 4.77,11.12 19.74,23.09 18.46,38.32 -1.28,15.23 -41.2,14.83 -58.969,8.36 -17.785,-6.46 -29.258,-15.53 -29.547,-34.43"
         style="fill:#d4ab22;fill-opacity:1;fill-rule:nonzero;stroke:none"
         transform="matrix(0.13333333,0,0,-0.13333333,0,384)" />
      <path
         id="path144"
         d="m 961.555,1866.05 c -6.504,-4.59 -6.02,-15.45 1.011,-24.24 7.036,-8.8 17.946,-12.2 24.45,-7.61 6.5,4.59 6.132,15.44 -0.899,24.24 -7.023,8.79 -18.058,12.21 -24.562,7.61"
         style="fill:#d4ab22;fill-opacity:1;fill-rule:nonzero;stroke:none"
         transform="matrix(0.13333333,0,0,-0.13333333,0,384)" />
      <path
         id="path145"
         d="m 947.094,1778.54 c -0.239,10.27 -12.578,18.49 -27.586,17.82 -14.988,-0.5 -26.805,-9.15 -26.426,-19.31 0.387,-10.15 12.715,-17.96 27.57,-17.44 14.883,0.69 26.688,8.69 26.442,18.93"
         style="fill:#d4ab22;fill-opacity:1;fill-rule:nonzero;stroke:none"
         transform="matrix(0.13333333,0,0,-0.13333333,0,384)" />
      <path
         id="path146"
         d="m 939.605,1750.57 c -10.195,-4.36 -15.667,-14.16 -12.203,-21.03 3.473,-6.83 14.43,-9.17 24.606,-4.66 10.164,4.44 15.703,13.79 12.293,20.88 -3.406,7.09 -14.496,9.25 -24.696,4.81"
         style="fill:#d4ab22;fill-opacity:1;fill-rule:nonzero;stroke:none"
         transform="matrix(0.13333333,0,0,-0.13333333,0,384)" />
      <path
         id="path147"
         d="m 940.984,1842.47 c -13.406,6.56 -28.351,4.57 -33.293,-4.46 -4.941,-9.02 1.922,-21.65 15.235,-28.2 13.336,-6.36 28.058,-4.91 33.082,3.94 5.008,8.85 -1.656,21.83 -15.024,28.72"
         style="fill:#d4ab22;fill-opacity:1;fill-rule:nonzero;stroke:none"
         transform="matrix(0.13333333,0,0,-0.13333333,0,384)" />
      <path
         id="path148"
         d="m 2311.38,534.18 c 8.05,8.808 15.38,30.429 11.77,51.679 -3.6,21.25 -16.17,36.551 -27.23,34.211 -11.06,-2.332 -17.89,-25.07 -28.83,-30.238 -10.94,-5.16 -30.09,-4.184 -39.23,-16.422 -9.15,-12.25 20.98,-38.441 38.57,-45.379 17.59,-6.972 32.19,-7.793 44.95,6.149"
         style="fill:#d4ab22;fill-opacity:1;fill-rule:nonzero;stroke:none"
         transform="matrix(0.13333333,0,0,-0.13333333,0,384)" />
      <path
         id="path149"
         d="m 2257.71,478.891 c 7.91,-0.879 14.75,7.57 15.32,18.82 0.57,11.238 -5.33,21.027 -13.24,21.91 -7.91,0.879 -14.84,-7.48 -15.41,-18.73 -0.58,-11.243 5.41,-21.121 13.33,-22"
         style="fill:#d4ab22;fill-opacity:1;fill-rule:nonzero;stroke:none"
         transform="matrix(0.13333333,0,0,-0.13333333,0,384)" />
      <path
         id="path150"
         d="m 2326.58,534.781 c -6.63,-7.84 -2.85,-22.179 8.82,-31.64 11.55,-9.559 26.13,-10.93 32.58,-3.082 6.45,7.851 2.41,21.871 -9.05,31.351 -11.6,9.352 -25.74,11.192 -32.35,3.371"
         style="fill:#d4ab22;fill-opacity:1;fill-rule:nonzero;stroke:none"
         transform="matrix(0.13333333,0,0,-0.13333333,0,384)" />
      <path
         id="path151"
         d="m 2350.75,550.738 c 10.51,-3.508 21.12,0.203 23.07,7.633 1.94,7.418 -4.71,16.438 -15.31,19.82 -10.56,3.418 -20.9,0.098 -23.05,-7.461 -2.16,-7.57 4.71,-16.55 15.29,-19.992"
         style="fill:#d4ab22;fill-opacity:1;fill-rule:nonzero;stroke:none"
         transform="matrix(0.13333333,0,0,-0.13333333,0,384)" />
      <path
         id="path152"
         d="m 2288.74,482.891 c 5.67,-13.801 18.18,-22.231 27.87,-18.75 9.68,3.468 12.93,17.468 7.31,31.211 -5.76,13.597 -17.74,22.289 -27.36,19 -9.62,-3.301 -13.25,-17.442 -7.82,-31.461"
         style="fill:#d4ab22;fill-opacity:1;fill-rule:nonzero;stroke:none"
         transform="matrix(0.13333333,0,0,-0.13333333,0,384)" />
      <path
         id="path153"
         d="m 1249.5,1409.58 c 11.02,-4.59 33.83,-4.14 52.6,6.46 18.77,10.61 28.89,27.63 22.94,37.24 -5.95,9.6 -29.65,8.32 -38.23,16.85 -8.57,8.54 -14.15,26.88 -28.77,31.33 -14.63,4.45 -29.04,-32.79 -29.6,-51.69 -0.57,-18.91 3.61,-32.93 21.06,-40.19"
         style="fill:#a8e0d9;fill-opacity:1;fill-rule:nonzero;stroke:none"
         transform="matrix(0.13333333,0,0,-0.13333333,0,384)" />
      <path
         id="path154"
         d="m 1179.27,1441.3 c 1.85,-7.74 12.12,-11.31 22.9,-8.02 10.77,3.27 17.97,12.15 16.11,19.89 -1.86,7.74 -12.07,11.41 -22.84,8.14 -10.78,-3.28 -18.03,-12.27 -16.17,-20.01"
         style="fill:#a8e0d9;fill-opacity:1;fill-rule:nonzero;stroke:none"
         transform="matrix(0.13333333,0,0,-0.13333333,0,384)" />
      <path
         id="path155"
         d="m 1255.21,1395.49 c -9.62,3.57 -21.82,-4.85 -26.76,-19.04 -5.08,-14.11 -1.42,-28.29 8.16,-31.7 9.57,-3.4 21.39,5.17 26.41,19.16 4.87,14.08 1.79,28.01 -7.81,31.58"
         style="fill:#a8e0d9;fill-opacity:1;fill-rule:nonzero;stroke:none"
         transform="matrix(0.13333333,0,0,-0.13333333,0,384)" />
      <path
         id="path156"
         d="m 1278.43,1378.17 c 0.27,-11.08 7.36,-19.8 15.02,-19.11 7.62,0.69 13.85,10.01 13.43,21.13 -0.36,11.08 -6.99,19.69 -14.84,19.15 -7.85,-0.55 -13.96,-10.05 -13.61,-21.17"
         style="fill:#a8e0d9;fill-opacity:1;fill-rule:nonzero;stroke:none"
         transform="matrix(0.13333333,0,0,-0.13333333,0,384)" />
      <path
         id="path157"
         d="m 1193.56,1413.47 c -11.05,-10.03 -14.73,-24.65 -8.17,-32.58 6.55,-7.93 20.82,-6.23 31.83,3.71 10.84,10.04 14.95,24.26 8.59,32.19 -6.37,7.93 -20.9,6.54 -32.25,-3.32"
         style="fill:#a8e0d9;fill-opacity:1;fill-rule:nonzero;stroke:none"
         transform="matrix(0.13333333,0,0,-0.13333333,0,384)" />
      <path
         id="path158"
         d="m 2648.54,1745.63 c -11.93,0.13 -32.92,-8.83 -46.35,-25.69 -13.43,-16.87 -16.44,-36.44 -7.32,-43.12 9.11,-6.67 30.61,3.39 41.76,-1.3 11.14,-4.71 23.19,-19.63 38.41,-18.28 15.22,1.36 14.63,41.28 8.08,59.01 -6.56,17.76 -15.68,29.19 -34.58,29.38"
         style="fill:#a8e0d9;fill-opacity:1;fill-rule:nonzero;stroke:none"
         transform="matrix(0.13333333,0,0,-0.13333333,0,384)" />
      <path
         id="path159"
         d="m 2725.54,1742.53 c -4.62,6.49 -15.48,5.95 -24.24,-1.13 -8.76,-7.08 -12.11,-18.01 -7.49,-24.49 4.62,-6.48 15.47,-6.06 24.23,1.02 8.76,7.07 12.12,18.12 7.5,24.6"
         style="fill:#a8e0d9;fill-opacity:1;fill-rule:nonzero;stroke:none"
         transform="matrix(0.13333333,0,0,-0.13333333,0,384)" />
      <path
         id="path160"
         d="m 2637.96,1756.56 c 10.26,0.29 18.42,12.67 17.68,27.68 -0.58,14.98 -9.28,26.75 -19.43,26.33 -10.16,-0.43 -17.9,-12.8 -17.31,-27.66 0.75,-14.88 8.82,-26.64 19.06,-26.35"
         style="fill:#a8e0d9;fill-opacity:1;fill-rule:nonzero;stroke:none"
         transform="matrix(0.13333333,0,0,-0.13333333,0,384)" />
      <path
         id="path161"
         d="m 2609.95,1763.91 c -4.4,10.18 -14.24,15.61 -21.09,12.1 -6.81,-3.5 -9.09,-14.47 -4.54,-24.62 4.49,-10.15 13.86,-15.64 20.93,-12.2 7.08,3.45 9.18,14.55 4.7,24.72"
         style="fill:#a8e0d9;fill-opacity:1;fill-rule:nonzero;stroke:none"
         transform="matrix(0.13333333,0,0,-0.13333333,0,384)" />
      <path
         id="path162"
         d="m 2701.86,1762.99 c 6.49,13.43 4.42,28.37 -4.63,33.27 -9.05,4.9 -21.64,-2.03 -28.12,-15.37 -6.3,-13.37 -4.77,-28.09 4.1,-33.06 8.87,-4.97 21.82,1.75 28.65,15.16"
         style="fill:#a8e0d9;fill-opacity:1;fill-rule:nonzero;stroke:none"
         transform="matrix(0.13333333,0,0,-0.13333333,0,384)" />
      <path
         id="path163"
         d="m 2636.76,212.488 c -1.37,-11.847 5.35,-33.656 20.72,-48.769 15.38,-15.117 34.52,-20.16 42.11,-11.778 7.6,8.368 -0.18,30.789 5.66,41.391 5.84,10.59 21.94,21.02 22.18,36.297 0.24,15.281 -39.52,18.859 -57.84,14.191 -18.34,-4.672 -30.66,-12.55 -32.83,-31.332"
         style="fill:#a8e0d9;fill-opacity:1;fill-rule:nonzero;stroke:none"
         transform="matrix(0.13333333,0,0,-0.13333333,0,384)" />
      <path
         id="path164"
         d="m 2647.88,288.75 c -6.93,-3.918 -7.52,-14.77 -1.4,-24.219 6.12,-9.461 16.64,-13.929 23.57,-10 6.92,3.918 7.64,14.739 1.52,24.188 -6.12,9.461 -16.76,13.953 -23.69,10.031"
         style="fill:#a8e0d9;fill-opacity:1;fill-rule:nonzero;stroke:none"
         transform="matrix(0.13333333,0,0,-0.13333333,0,384)" />
      <path
         id="path165"
         d="m 2624.79,203.109 c 0.78,10.243 -10.68,19.653 -25.68,20.481 -14.96,0.98 -27.58,-6.442 -28.22,-16.578 -0.63,-10.153 10.86,-19.153 25.71,-20.114 14.87,-0.796 27.41,6 28.19,16.211"
         style="fill:#a8e0d9;fill-opacity:1;fill-rule:nonzero;stroke:none"
         transform="matrix(0.13333333,0,0,-0.13333333,0,384)" />
      <path
         id="path166"
         d="m 2614.55,176.02 c -10.58,-3.309 -17,-12.532 -14.23,-19.7 2.77,-7.148 13.44,-10.558 24.02,-7.09 10.55,3.411 16.99,12.149 14.31,19.551 -2.69,7.391 -13.51,10.641 -24.1,7.239"
         style="fill:#a8e0d9;fill-opacity:1;fill-rule:nonzero;stroke:none"
         transform="matrix(0.13333333,0,0,-0.13333333,0,384)" />
      <path
         id="path167"
         d="m 2625.07,267.34 c -12.69,7.851 -27.76,7.359 -33.58,-1.129 -5.81,-8.492 -0.24,-21.742 12.36,-29.582 12.63,-7.66 27.43,-7.68 33.3,0.633 5.87,8.297 0.53,21.879 -12.08,30.078"
         style="fill:#a8e0d9;fill-opacity:1;fill-rule:nonzero;stroke:none"
         transform="matrix(0.13333333,0,0,-0.13333333,0,384)" />
      <path
         id="path168"
         d="m 1304.87,624.34 c 7.68,-9.121 28.17,-19.192 49.71,-18.379 21.54,0.82 38.34,11.289 37.46,22.559 -0.88,11.269 -22.53,21 -26.24,32.511 -3.7,11.52 -0.25,30.379 -11.2,41.039 -10.95,10.66 -40.83,-15.82 -50,-32.351 -9.19,-16.547 -11.9,-30.918 0.27,-45.379"
         style="fill:#a8e0d9;fill-opacity:1;fill-rule:nonzero;stroke:none"
         transform="matrix(0.13333333,0,0,-0.13333333,0,384)" />
      <path
         id="path169"
         d="m 1257.01,684.75 c -1.9,-7.73 5.59,-15.609 16.67,-17.641 11.08,-2.027 21.54,2.563 23.44,10.289 1.9,7.731 -5.48,15.672 -16.56,17.711 -11.07,2.032 -21.65,-2.629 -23.55,-10.359"
         style="fill:#a8e0d9;fill-opacity:1;fill-rule:nonzero;stroke:none"
         transform="matrix(0.13333333,0,0,-0.13333333,0,384)" />
      <path
         id="path170"
         d="m 1303.48,609.199 c -6.91,7.602 -21.61,5.711 -32.51,-4.64 -10.98,-10.207 -14.24,-24.477 -7.29,-31.899 6.95,-7.422 21.38,-5.23 32.26,4.91 10.78,10.27 14.44,24.059 7.54,31.629"
         style="fill:#a8e0d9;fill-opacity:1;fill-rule:nonzero;stroke:none"
         transform="matrix(0.13333333,0,0,-0.13333333,0,384)" />
      <path
         id="path171"
         d="m 1316.17,583.16 c -4.84,-9.969 -2.54,-20.961 4.58,-23.871 7.1,-2.879 16.9,2.543 21.63,12.609 4.76,10.024 2.82,20.711 -4.41,23.832 -7.22,3.122 -17.01,-2.519 -21.8,-12.57"
         style="fill:#a8e0d9;fill-opacity:1;fill-rule:nonzero;stroke:none"
         transform="matrix(0.13333333,0,0,-0.13333333,0,384)" />
      <path
         id="path172"
         d="m 1256.95,653.461 c -14.42,-3.84 -24.4,-15.152 -22.21,-25.199 2.18,-10.051 15.65,-15.09 29.99,-11.301 14.24,3.937 24.41,14.687 22.39,24.66 -2.01,9.969 -15.56,15.399 -30.17,11.84"
         style="fill:#a8e0d9;fill-opacity:1;fill-rule:nonzero;stroke:none"
         transform="matrix(0.13333333,0,0,-0.13333333,0,384)" />
      <path
         id="path173"
         d="m 231.289,2302.58 c 11.309,-3.82 34.043,-1.8 52.031,10.07 17.993,11.87 26.918,29.55 20.317,38.72 -6.598,9.18 -30.153,6.26 -39.297,14.18 -9.141,7.93 -15.973,25.84 -30.86,29.28 -14.894,3.42 -26.703,-34.71 -25.964,-53.61 0.73,-18.91 5.863,-32.6 23.773,-38.64"
         style="fill:#a8e0d9;fill-opacity:1;fill-rule:nonzero;stroke:none"
         transform="matrix(0.13333333,0,0,-0.13333333,0,384)" />
      <path
         id="path174"
         d="m 159.039,2329.38 c 2.387,-7.59 12.875,-10.44 23.399,-6.43 10.523,4.01 17.093,13.37 14.707,20.96 -2.387,7.59 -12.829,10.55 -23.352,6.54 -10.523,-4 -17.145,-13.47 -14.754,-21.07"
         style="fill:#a8e0d9;fill-opacity:1;fill-rule:nonzero;stroke:none"
         transform="matrix(0.13333333,0,0,-0.13333333,0,384)" />
      <path
         id="path175"
         d="m 237.965,2288.91 c -9.856,2.9 -21.442,-6.34 -25.387,-20.84 -4.098,-14.43 0.531,-28.32 10.317,-31.05 9.793,-2.74 20.988,6.62 25.031,20.93 3.89,14.38 -0.137,28.06 -9.961,30.96"
         style="fill:#a8e0d9;fill-opacity:1;fill-rule:nonzero;stroke:none"
         transform="matrix(0.13333333,0,0,-0.13333333,0,384)" />
      <path
         id="path176"
         d="m 262.32,2273.23 c 1.032,-11.03 8.703,-19.24 16.293,-18.03 7.563,1.22 13.133,10.94 11.953,22.01 -1.128,11.03 -8.336,19.16 -16.128,18.08 -7.793,-1.09 -13.239,-10.99 -12.118,-22.06"
         style="fill:#a8e0d9;fill-opacity:1;fill-rule:nonzero;stroke:none"
         transform="matrix(0.13333333,0,0,-0.13333333,0,384)" />
      <path
         id="path177"
         d="m 175.215,2302.6 c -10.332,-10.76 -12.992,-25.61 -5.906,-33.06 7.082,-7.47 21.203,-4.79 31.504,5.89 10.125,10.76 13.234,25.23 6.343,32.7 -6.89,7.48 -21.297,5.1 -31.941,-5.53"
         style="fill:#a8e0d9;fill-opacity:1;fill-rule:nonzero;stroke:none"
         transform="matrix(0.13333333,0,0,-0.13333333,0,384)" />
      <path
         id="path178"
         d="m 681.055,2210.06 c -4.321,-11.13 -3.328,-33.92 7.715,-52.43 11.054,-18.52 28.304,-28.23 37.761,-22.04 9.469,6.17 7.617,29.84 15.942,38.61 8.332,8.77 26.543,14.79 30.636,29.51 4.098,14.73 -33.468,28.24 -52.379,28.35 -18.921,0.13 -32.832,-4.38 -39.675,-22"
         style="fill:#a8e0d9;fill-opacity:1;fill-rule:nonzero;stroke:none"
         transform="matrix(0.13333333,0,0,-0.13333333,0,384)" />
      <path
         id="path179"
         d="m 711.094,2281.03 c -7.699,-2.04 -11.016,-12.39 -7.481,-23.09 3.532,-10.69 12.578,-17.68 20.274,-15.63 7.691,2.04 11.117,12.34 7.59,23.03 -3.528,10.69 -12.688,17.73 -20.383,15.69"
         style="fill:#a8e0d9;fill-opacity:1;fill-rule:nonzero;stroke:none"
         transform="matrix(0.13333333,0,0,-0.13333333,0,384)" />
      <path
         id="path180"
         d="m 667.102,2204.01 c 3.343,9.71 -5.364,21.7 -19.668,26.3 -14.231,4.74 -28.317,0.74 -31.493,-8.91 -3.171,-9.65 5.664,-21.26 19.782,-25.95 14.187,-4.53 28.043,-1.13 31.379,8.56"
         style="fill:#a8e0d9;fill-opacity:1;fill-rule:nonzero;stroke:none"
         transform="matrix(0.13333333,0,0,-0.13333333,0,384)" />
      <path
         id="path181"
         d="m 650.344,2180.39 c -11.074,-0.54 -19.621,-7.83 -18.75,-15.47 0.879,-7.61 10.34,-13.61 21.441,-12.94 11.074,0.64 19.52,7.47 18.789,15.31 -0.726,7.83 -10.375,13.71 -21.48,13.1"
         style="fill:#a8e0d9;fill-opacity:1;fill-rule:nonzero;stroke:none"
         transform="matrix(0.13333333,0,0,-0.13333333,0,384)" />
      <path
         id="path182"
         d="m 683.609,2266.07 c -10.289,10.81 -24.996,14.14 -32.769,7.4 -7.774,-6.74 -5.727,-20.97 4.473,-31.74 10.289,-10.6 24.605,-14.36 32.382,-7.82 7.778,6.56 6.043,21.05 -4.086,32.16"
         style="fill:#a8e0d9;fill-opacity:1;fill-rule:nonzero;stroke:none"
         transform="matrix(0.13333333,0,0,-0.13333333,0,384)" />
      <path
         id="path183"
         d="m 2684.64,768.25 c -11.07,-4.48 -26.99,-20.828 -32.9,-41.559 -5.91,-20.73 -1.15,-39.953 9.83,-42.601 10.98,-2.668 26.95,14.898 39.05,14.851 12.09,-0.05 28.96,-9.191 42.49,-2.089 13.53,7.109 -2.38,43.73 -15.25,57.578 -12.88,13.859 -25.7,20.91 -43.22,13.82"
         style="fill:#a8e0d9;fill-opacity:1;fill-rule:nonzero;stroke:none"
         transform="matrix(0.13333333,0,0,-0.13333333,0,384)" />
      <path
         id="path184"
         d="m 2756.91,795 c -6.76,4.211 -16.58,-0.469 -21.94,-10.371 -5.37,-9.899 -4.25,-21.277 2.51,-25.481 6.75,-4.199 16.6,0.364 21.97,10.262 5.37,9.899 4.22,21.391 -2.54,25.59"
         style="fill:#a8e0d9;fill-opacity:1;fill-rule:nonzero;stroke:none"
         transform="matrix(0.13333333,0,0,-0.13333333,0,384)" />
      <path
         id="path185"
         d="m 2670.67,774.262 c 9.36,4.218 12.13,18.777 5.67,32.347 -6.3,13.61 -18.86,21.129 -28.06,16.832 -9.21,-4.312 -11.61,-18.703 -5.35,-32.191 6.43,-13.441 18.4,-21.199 27.74,-16.988"
         style="fill:#a8e0d9;fill-opacity:1;fill-rule:nonzero;stroke:none"
         transform="matrix(0.13333333,0,0,-0.13333333,0,384)" />
      <path
         id="path186"
         d="m 2641.98,770.281 c -7.98,7.688 -19.14,8.918 -24.11,3.047 -4.94,-5.859 -2.83,-16.859 5.27,-24.476 8.06,-7.641 18.82,-9.102 24.02,-3.204 5.21,5.903 2.88,16.961 -5.18,24.633"
         style="fill:#a8e0d9;fill-opacity:1;fill-rule:nonzero;stroke:none"
         transform="matrix(0.13333333,0,0,-0.13333333,0,384)" />
      <path
         id="path187"
         d="m 2727.18,804.77 c 0.82,14.902 -6.83,27.89 -17.07,28.929 -10.23,1.039 -19.2,-10.199 -20.05,-25 -0.67,-14.758 6.4,-27.758 16.51,-28.937 10.1,-1.18 19.47,10.019 20.61,25.008"
         style="fill:#a8e0d9;fill-opacity:1;fill-rule:nonzero;stroke:none"
         transform="matrix(0.13333333,0,0,-0.13333333,0,384)" />
      <path
         id="path188"
         d="m 223.398,2709.82 c -7.246,-9.48 -12.636,-31.66 -7.171,-52.51 5.461,-20.86 19.336,-34.98 30.14,-31.68 10.805,3.3 15.613,26.55 26.051,32.66 10.441,6.11 29.602,6.83 37.641,19.82 8.027,13.01 -24.297,36.44 -42.422,41.81 -18.145,5.38 -32.766,4.92 -44.239,-10.1"
         style="fill:#a8e0d9;fill-opacity:1;fill-rule:nonzero;stroke:none"
         transform="matrix(0.13333333,0,0,-0.13333333,0,384)" />
      <path
         id="path189"
         d="m 271.992,2769.63 c -7.961,0.18 -14.027,-8.84 -13.609,-20.09 0.426,-11.25 7.168,-20.49 15.129,-20.66 7.953,-0.18 14.117,8.76 13.695,20.01 -0.414,11.25 -7.25,20.56 -15.215,20.74"
         style="fill:#a8e0d9;fill-opacity:1;fill-rule:nonzero;stroke:none"
         transform="matrix(0.13333333,0,0,-0.13333333,0,384)" />
      <path
         id="path190"
         d="m 208.313,2707.89 c 5.917,8.4 0.886,22.34 -11.575,30.73 -12.347,8.51 -26.992,8.59 -32.73,0.21 -5.731,-8.39 -0.469,-22.01 11.789,-30.43 12.367,-8.3 26.613,-8.88 32.516,-0.51"
         style="fill:#a8e0d9;fill-opacity:1;fill-rule:nonzero;stroke:none"
         transform="matrix(0.13333333,0,0,-0.13333333,0,384)" />
      <path
         id="path191"
         d="m 185.645,2689.86 c -10.782,2.57 -21.02,-2.06 -22.317,-9.64 -1.265,-7.56 6.149,-15.95 17.004,-18.38 10.816,-2.48 20.824,1.73 22.305,9.46 1.48,7.73 -6.153,16.06 -16.992,18.56"
         style="fill:#a8e0d9;fill-opacity:1;fill-rule:nonzero;stroke:none"
         transform="matrix(0.13333333,0,0,-0.13333333,0,384)" />
      <path
         id="path192"
         d="m 241.438,2762.91 c -6.875,13.25 -20.083,20.54 -29.422,16.23 -9.34,-4.32 -11.336,-18.55 -4.532,-31.73 6.934,-13.05 19.633,-20.65 28.93,-16.52 9.293,4.13 11.66,18.53 5.024,32.02"
         style="fill:#a8e0d9;fill-opacity:1;fill-rule:nonzero;stroke:none"
         transform="matrix(0.13333333,0,0,-0.13333333,0,384)" />
      <path
         id="path193"
         d="m 1411.28,1883.45 c -6.95,9.69 -26.6,21.32 -48.13,22.18 -21.54,0.85 -39.1,-8.3 -39.09,-19.59 0,-11.31 20.83,-22.69 23.64,-34.45 2.79,-11.78 -2.11,-30.31 7.98,-41.79 10.1,-11.47 41.94,12.62 52.36,28.39 10.44,15.78 14.26,29.9 3.24,45.26"
         style="fill:#a8e0d9;fill-opacity:1;fill-rule:nonzero;stroke:none"
         transform="matrix(0.13333333,0,0,-0.13333333,0,384)" />
      <path
         id="path194"
         d="m 1454.32,1819.52 c 2.5,7.56 -4.36,16 -15.25,18.88 -10.89,2.88 -21.68,-0.89 -24.17,-8.45 -2.49,-7.55 4.26,-16.05 15.14,-18.93 10.89,-2.89 21.79,0.94 24.28,8.5"
         style="fill:#a8e0d9;fill-opacity:1;fill-rule:nonzero;stroke:none"
         transform="matrix(0.13333333,0,0,-0.13333333,0,384)" />
      <path
         id="path195"
         d="m 1413.84,1898.44 c 6.3,-8.1 21.11,-7.36 32.77,2.11 11.74,9.33 16.09,23.31 9.74,31.25 -6.35,7.93 -20.91,6.86 -32.54,-2.41 -11.55,-9.4 -16.26,-22.87 -9.97,-30.95"
         style="fill:#a8e0d9;fill-opacity:1;fill-rule:nonzero;stroke:none"
         transform="matrix(0.13333333,0,0,-0.13333333,0,384)" />
      <path
         id="path196"
         d="m 1403.2,1925.38 c 5.6,9.57 4.16,20.71 -2.71,24.16 -6.86,3.41 -17.05,-1.23 -22.55,-10.9 -5.52,-9.62 -4.4,-20.43 2.55,-24.1 6.97,-3.66 17.16,1.2 22.71,10.84"
         style="fill:#a8e0d9;fill-opacity:1;fill-rule:nonzero;stroke:none"
         transform="matrix(0.13333333,0,0,-0.13333333,0,384)" />
      <path
         id="path197"
         d="m 1456.81,1850.71 c 14.67,2.72 25.49,13.21 24.09,23.41 -1.4,10.19 -14.44,16.26 -29.02,13.59 -14.51,-2.83 -25.48,-12.76 -24.24,-22.86 1.24,-10.09 14.32,-16.56 29.17,-14.14"
         style="fill:#a8e0d9;fill-opacity:1;fill-rule:nonzero;stroke:none"
         transform="matrix(0.13333333,0,0,-0.13333333,0,384)" />
      <path
         id="path198"
         d="m 1729.59,2183.48 c -9.59,-7.1 -20.93,-26.91 -21.47,-48.46 -0.54,-21.55 8.86,-38.98 20.16,-38.8 11.3,0.17 22.37,21.17 34.1,24.14 11.73,2.97 30.33,-1.66 41.66,8.59 11.33,10.26 -13.22,41.75 -29.15,51.94 -15.93,10.21 -30.1,13.82 -45.3,2.59"
         style="fill:#a8e0d9;fill-opacity:1;fill-rule:nonzero;stroke:none"
         transform="matrix(0.13333333,0,0,-0.13333333,0,384)" />
      <path
         id="path199"
         d="m 1792.89,2227.44 c -7.6,2.38 -15.94,-4.6 -18.66,-15.53 -2.72,-10.93 1.2,-21.66 8.8,-24.04 7.59,-2.38 15.99,4.49 18.71,15.42 2.73,10.92 -1.26,21.77 -8.85,24.15"
         style="fill:#a8e0d9;fill-opacity:1;fill-rule:nonzero;stroke:none"
         transform="matrix(0.13333333,0,0,-0.13333333,0,384)" />
      <path
         id="path200"
         d="m 1714.57,2185.81 c 8.01,6.42 7.05,21.21 -2.59,32.74 -9.5,11.61 -23.54,15.75 -31.38,9.28 -7.84,-6.46 -6.57,-21.01 2.87,-32.5 9.57,-11.41 23.1,-15.93 31.1,-9.52"
         style="fill:#a8e0d9;fill-opacity:1;fill-rule:nonzero;stroke:none"
         transform="matrix(0.13333333,0,0,-0.13333333,0,384)" />
      <path
         id="path201"
         d="m 1687.78,2174.79 c -9.65,5.46 -20.76,3.85 -24.11,-3.07 -3.32,-6.91 1.47,-17.03 11.23,-22.38 9.69,-5.39 20.48,-4.12 24.05,2.89 3.57,7.02 -1.45,17.15 -11.17,22.56"
         style="fill:#a8e0d9;fill-opacity:1;fill-rule:nonzero;stroke:none"
         transform="matrix(0.13333333,0,0,-0.13333333,0,384)" />
      <path
         id="path202"
         d="m 1761.66,2229.47 c -2.92,14.64 -13.58,25.3 -23.75,23.75 -10.18,-1.55 -16.04,-14.67 -13.17,-29.22 3.04,-14.46 13.14,-25.29 23.21,-23.9 10.07,1.39 16.35,14.57 13.71,29.37"
         style="fill:#a8e0d9;fill-opacity:1;fill-rule:nonzero;stroke:none"
         transform="matrix(0.13333333,0,0,-0.13333333,0,384)" />
    </g>
  </g>
</svg>
